<svg width="200" height="116" viewBox="0 0 200 116" fill="none" xmlns="http://www.w3.org/2000/svg">
<line y1="110" x2="200" y2="110" stroke="white" stroke-width="12"/>
<path d="M74.5384 60.16C78.1544 60.16 80.9704 61.072 82.9864 62.896C85.0344 64.688 86.0584 67.152 86.0584 70.288C86.0584 73.968 84.9864 76.8 82.8424 78.784C80.6984 80.768 77.6104 81.76 73.5784 81.76H65.8504L65.2264 89.872C65.0984 91.248 64.6024 92.336 63.7384 93.136C62.9064 93.904 61.8024 94.288 60.4264 94.288C59.0824 94.288 58.0424 93.904 57.3064 93.136C56.5704 92.336 56.2664 91.264 56.3944 89.92L58.4104 64.24C58.5384 62.928 58.9864 61.92 59.7544 61.216C60.5224 60.512 61.5464 60.16 62.8264 60.16H74.5384ZM72.7144 75.136C76.1384 75.136 77.8504 73.68 77.8504 70.768C77.8504 69.424 77.4664 68.432 76.6984 67.792C75.9624 67.152 74.8264 66.832 73.2904 66.832H67.0504L66.3784 75.136H72.7144ZM99.2948 66.976L98.7668 73.408H109.903C111.183 73.408 112.143 73.68 112.783 74.224C113.455 74.768 113.791 75.536 113.791 76.528C113.791 77.776 113.423 78.704 112.687 79.312C111.983 79.888 110.879 80.176 109.375 80.176H98.2388L97.6628 87.184H109.807C111.087 87.184 112.047 87.472 112.687 88.048C113.359 88.624 113.695 89.408 113.695 90.4C113.695 92.8 112.207 94 109.231 94H92.6228C91.3108 94 90.3188 93.648 89.6468 92.944C89.0068 92.24 88.7508 91.232 88.8788 89.92L90.8948 64.24C91.0228 62.928 91.4708 61.92 92.2388 61.216C93.0068 60.512 94.0308 60.16 95.3108 60.16H111.967C113.247 60.16 114.207 60.448 114.847 61.024C115.519 61.568 115.855 62.32 115.855 63.28C115.855 65.744 114.367 66.976 111.391 66.976H99.2948ZM129.981 94.24C128.637 94.24 127.581 93.856 126.813 93.088C126.077 92.288 125.773 91.232 125.901 89.92L127.725 67.312H120.909C118.317 67.312 117.021 66.224 117.021 64.048C117.021 62.672 117.389 61.68 118.125 61.072C118.861 60.464 119.981 60.16 121.485 60.16H143.949C146.541 60.16 147.837 61.264 147.837 63.472C147.837 64.848 147.469 65.84 146.733 66.448C146.029 67.024 144.909 67.312 143.373 67.312H136.605L134.781 89.872C134.685 91.184 134.205 92.24 133.341 93.04C132.477 93.84 131.357 94.24 129.981 94.24Z" fill="white"/>
<path d="M19.3071 52.432C15.9151 52.432 12.9711 51.776 10.4751 50.464C8.01113 49.12 6.10713 47.232 4.76313 44.8C3.45113 42.336 2.79513 39.44 2.79513 36.112C2.79513 32.432 3.54713 29.2 5.05113 26.416C6.55513 23.632 8.66713 21.488 11.3871 19.984C14.1391 18.48 17.3231 17.728 20.9391 17.728C22.9551 17.728 24.8111 17.968 26.5071 18.448C28.2351 18.896 29.6751 19.408 30.8271 19.984C32.2991 20.88 33.0351 22.08 33.0351 23.584C33.0351 24.512 32.7151 25.328 32.0751 26.032C31.4671 26.704 30.6991 27.04 29.7711 27.04C29.0991 27.04 28.4111 26.832 27.7071 26.416C25.4031 25.296 23.2911 24.736 21.3711 24.736C18.2991 24.736 15.9311 25.744 14.2671 27.76C12.6031 29.776 11.7711 32.56 11.7711 36.112C11.7711 39.152 12.4271 41.472 13.7391 43.072C15.0511 44.64 16.9871 45.424 19.5471 45.424C20.6991 45.424 21.7391 45.28 22.6671 44.992C23.5951 44.672 24.8271 44.208 26.3631 43.6C27.0671 43.248 27.7071 43.072 28.2831 43.072C29.1471 43.072 29.8511 43.392 30.3951 44.032C30.9391 44.64 31.2111 45.376 31.2111 46.24C31.2111 46.88 31.0511 47.504 30.7311 48.112C30.4431 48.72 29.9791 49.264 29.3391 49.744C28.3791 50.448 26.9711 51.072 25.1151 51.616C23.2911 52.16 21.3551 52.432 19.3071 52.432ZM67.1114 47.008C67.3034 47.488 67.3994 47.952 67.3994 48.4C67.3994 49.488 66.9514 50.416 66.0554 51.184C65.1594 51.92 64.1514 52.288 63.0314 52.288C62.2954 52.288 61.6234 52.096 61.0154 51.712C60.4074 51.296 59.9594 50.688 59.6714 49.888L57.9434 44.992H42.9194L40.4714 49.84C40.0554 50.64 39.5114 51.232 38.8394 51.616C38.1994 52 37.5114 52.192 36.7754 52.192C35.7194 52.192 34.7754 51.856 33.9434 51.184C33.1434 50.512 32.7434 49.664 32.7434 48.64C32.7434 48 32.9354 47.328 33.3194 46.624L47.5754 20.56C48.0554 19.664 48.7274 18.992 49.5914 18.544C50.4554 18.064 51.3834 17.824 52.3754 17.824C53.3674 17.824 54.2634 18.064 55.0634 18.544C55.8634 18.992 56.4234 19.648 56.7434 20.512L67.1114 47.008ZM46.2794 38.368H55.6394L51.7994 27.472L46.2794 38.368ZM83.4314 52.432C80.9674 52.432 78.6794 52.192 76.5674 51.712C74.4554 51.232 72.7434 50.624 71.4314 49.888C70.7914 49.472 70.2954 48.96 69.9434 48.352C69.6234 47.712 69.4634 47.056 69.4634 46.384C69.4634 45.488 69.7354 44.704 70.2794 44.032C70.8234 43.36 71.5434 43.024 72.4394 43.024C73.1754 43.024 73.9274 43.248 74.6954 43.696C75.7194 44.208 77.0314 44.672 78.6314 45.088C80.2634 45.472 81.9914 45.664 83.8154 45.664C85.6394 45.664 87.0314 45.424 87.9914 44.944C88.9514 44.464 89.4314 43.76 89.4314 42.832C89.4314 41.84 88.9034 41.072 87.8474 40.528C86.7914 39.952 85.1594 39.344 82.9514 38.704C80.5834 38 78.6474 37.312 77.1434 36.64C75.6394 35.968 74.3434 34.976 73.2554 33.664C72.1674 32.32 71.6234 30.592 71.6234 28.48C71.6234 26.336 72.2154 24.448 73.3994 22.816C74.6154 21.184 76.3274 19.936 78.5354 19.072C80.7434 18.176 83.3194 17.728 86.2634 17.728C88.6634 17.728 90.8714 18 92.8874 18.544C94.9354 19.056 96.5354 19.76 97.6874 20.656C98.6474 21.392 99.1274 22.368 99.1274 23.584C99.1274 24.512 98.8234 25.328 98.2154 26.032C97.6394 26.704 96.8874 27.04 95.9594 27.04C95.1594 27.04 94.3914 26.8 93.6554 26.32C92.6634 25.84 91.4954 25.424 90.1514 25.072C88.8074 24.688 87.4314 24.496 86.0234 24.496C84.2954 24.496 82.9194 24.784 81.8954 25.36C80.9034 25.904 80.4074 26.672 80.4074 27.664C80.4074 28.688 80.9194 29.472 81.9434 30.016C82.9994 30.56 84.6634 31.168 86.9354 31.84C89.2714 32.544 91.1754 33.232 92.6474 33.904C94.1514 34.544 95.4474 35.504 96.5354 36.784C97.6234 38.064 98.1674 39.744 98.1674 41.824C98.1674 45.216 96.8874 47.84 94.3274 49.696C91.7674 51.52 88.1354 52.432 83.4314 52.432ZM113.739 52.24C112.395 52.24 111.339 51.856 110.571 51.088C109.835 50.288 109.531 49.232 109.659 47.92L111.483 25.312H104.667C102.075 25.312 100.779 24.224 100.779 22.048C100.779 20.672 101.147 19.68 101.883 19.072C102.619 18.464 103.739 18.16 105.243 18.16H127.707C130.299 18.16 131.595 19.264 131.595 21.472C131.595 22.848 131.227 23.84 130.491 24.448C129.787 25.024 128.667 25.312 127.131 25.312H120.363L118.539 47.872C118.443 49.184 117.963 50.24 117.099 51.04C116.235 51.84 115.115 52.24 113.739 52.24ZM159.811 46.72C160.099 47.328 160.243 47.92 160.243 48.496C160.243 49.616 159.779 50.576 158.851 51.376C157.923 52.144 156.883 52.528 155.731 52.528C154.931 52.528 154.195 52.32 153.523 51.904C152.851 51.488 152.307 50.864 151.891 50.032L147.763 41.2C147.187 39.952 146.179 39.328 144.739 39.328H141.667L141.043 47.872C140.947 49.216 140.483 50.288 139.651 51.088C138.819 51.888 137.731 52.288 136.387 52.288C135.043 52.288 134.003 51.904 133.267 51.136C132.531 50.336 132.227 49.264 132.355 47.92L134.371 22.24C134.499 20.928 134.931 19.92 135.667 19.216C136.435 18.512 137.475 18.16 138.787 18.16H151.123C154.675 18.16 157.443 19.072 159.427 20.896C161.411 22.688 162.403 25.088 162.403 28.096C162.403 31.104 161.699 33.488 160.291 35.248C158.915 36.976 156.755 38.112 153.811 38.656C154.675 38.88 155.395 39.264 155.971 39.808C156.579 40.352 157.139 41.136 157.651 42.16L159.811 46.72ZM149.347 32.704C150.915 32.704 152.099 32.352 152.899 31.648C153.731 30.944 154.147 29.936 154.147 28.624C154.147 27.344 153.795 26.4 153.091 25.792C152.419 25.152 151.363 24.832 149.923 24.832H142.771L142.195 32.704H149.347ZM198.033 47.008C198.225 47.488 198.321 47.952 198.321 48.4C198.321 49.488 197.873 50.416 196.977 51.184C196.081 51.92 195.073 52.288 193.953 52.288C193.217 52.288 192.545 52.096 191.937 51.712C191.329 51.296 190.881 50.688 190.593 49.888L188.865 44.992H173.841L171.393 49.84C170.977 50.64 170.433 51.232 169.761 51.616C169.121 52 168.433 52.192 167.697 52.192C166.641 52.192 165.697 51.856 164.865 51.184C164.065 50.512 163.665 49.664 163.665 48.64C163.665 48 163.857 47.328 164.241 46.624L178.497 20.56C178.977 19.664 179.649 18.992 180.513 18.544C181.377 18.064 182.305 17.824 183.297 17.824C184.289 17.824 185.185 18.064 185.985 18.544C186.785 18.992 187.345 19.648 187.665 20.512L198.033 47.008ZM177.201 38.368H186.561L182.721 27.472L177.201 38.368Z" fill="white"/>
<line y1="6" x2="200" y2="6" stroke="white" stroke-width="12"/>
</svg>
