<svg id="Camada_1" data-name="Camada 1" xmlns="http://www.w3.org/2000/svg" viewBox="0 0 363 166"><title>Logo PMJP_branco</title><path d="M86.78,98.2,85.59,98l.15-2.29a28.66,28.66,0,0,0-2.87-.21v2.27H81.62V95.54c-1,0-1.94.1-2.87.21L78.91,98l-1.18.16L77.4,96a21.63,21.63,0,0,0-3.06.82l1.57,8.26-1,.32.39,1.66.87-.32.12.59-.87.27.4,1.67a19.66,19.66,0,0,0,6.45,1,18.63,18.63,0,0,0,6.41-1l.36-1.67-.86-.27.11-.59.86.32.41-1.66-1-.32,1.56-8.26a21.13,21.13,0,0,0-3-.82Zm-7.13.46-.15-2.28h1.42v2.24h2.67V96.27H85l-.15,2.28,1.67.23-.11.81c-.5-.1-1-.18-1.56-.25V100a21.52,21.52,0,0,1,2.81.54l-.17,1.15a19.35,19.35,0,0,0-2.64-.46v.57c.36,0,.73.08,1.09.15l-.14,1c-.32,0-.63-.09-1-.11v.56c.75.09,1.47.21,2.17.34l-.19.93a19.25,19.25,0,0,0-2.8-.46v-2.79a1.7,1.7,0,0,0-1.66-1.81h-.08a1.76,1.76,0,0,0-1.74,1.81v2.78a19.39,19.39,0,0,0-2.34.33l-.1-.9c.55-.1,1.12-.19,1.69-.24v-.57c-.21,0-.42,0-.64.07l-.1-1,.74-.1v-.57c-.69.08-1.37.17-2,.3l-.19-1.15A21.86,21.86,0,0,1,79.8,100v-.55c-.34,0-.68.08-1,.14l-.08-.8Zm6.76,4.41.17-1c.62.13,1.21.26,1.78.44l-.19,1A16.7,16.7,0,0,0,86.41,103.07Zm1.66,1-.19,1-.45-.16.23-.92Zm-11.74-.54-.19-1a21,21,0,0,1,2.27-.52l.16,1A16.37,16.37,0,0,0,76.33,103.48Zm1.28,1.21a9.75,9.75,0,0,0-1,.3l-.18-1c.32-.09.67-.17,1-.24Zm-2.08-5.43.65-.21-.1-.54a5.06,5.06,0,0,0-.66.21l-.28-1.46h0l.08,0,.08,0,.09,0,.09,0,.1,0,.08,0,.1,0,.08,0,.1,0,.1,0,.09,0,.08,0,.1,0,.1,0,.09,0,.1,0,.1,0,.06,0L77.13,99l.91-.12.13.82a15.14,15.14,0,0,0-2.45.63Zm.3,1.57c.35-.11.72-.23,1.09-.32l.25,1.13c-.39.09-.77.2-1.13.3Zm11.92,8-.17.06-.18,0-.18.06L87,109l-.17.06-.2,0-.17,0-.19.05-.19,0-.18,0-.2,0-.19,0-.19,0-.18,0-.2,0-.2,0-.19,0-.21,0h-.19l-.2,0h-.21l-.2,0H80.81l-.2,0-.21,0h-.2l-.2,0h-.2l-.19,0-.2,0-.19,0-.21,0-.18,0-.19,0-.19,0-.19,0-.19,0-.19,0-.18,0-.19-.05-.18,0-.18-.06-.19,0-.18,0h0a17.2,17.2,0,0,1,11.07,0Zm.48-.74-.06.26a16.86,16.86,0,0,0-11.82,0l-.06-.26.19-.09.64-.2v0a16.39,16.39,0,0,1,5.14-.76,15.9,15.9,0,0,1,5.13.76v0l.64.2Zm-11.37-1.59a17.92,17.92,0,0,1,5.39-.76,17.65,17.65,0,0,1,5.34.75l-.11.68a16.09,16.09,0,0,0-5.23-.79,16.26,16.26,0,0,0-5.25.79Zm11.88-.64-.17.48a15.23,15.23,0,0,0-6.32-1.15,17.24,17.24,0,0,0-5.5.8h0a1.89,1.89,0,0,0-.21.09l-.65.23-.1-.45.38-.13h0l.13,0,.44-.14v0a19.06,19.06,0,0,1,11.06,0v0l.45.14.15.06,0,0Zm-.28-3.9c-.13,0-.24-.07-.37-.1l.21-1.12.37.11Zm-1.08-3,.31-2.18.06,0,.09,0,.1,0,.09,0,.1,0,.1,0,.09,0,.1,0,.09,0,.09,0,.09,0,.09,0,.1,0,.08,0,.09,0,.09,0,.09,0,.1,0h0l-.28,1.46c-.16-.06-.33-.1-.48-.16l-.12.54.5.16-.21,1.06a14.9,14.9,0,0,0-1.75-.5l.15-.85Zm.83,27.68a1.09,1.09,0,0,0,0-.5,2.47,2.47,0,0,0-.12-.53,3.17,3.17,0,0,0-.46-1,.92.92,0,0,0-.72-.43.33.33,0,0,0-.28.09.4.4,0,0,0,0,.37c.11.38.2.78.3,1.17s.21.79.31,1.18a1.64,1.64,0,0,0,.6-.08A.49.49,0,0,0,88.21,126.67Zm-2.9-.82c-.16.42-.29.83-.44,1.25s-.29.82-.43,1.24l1.49,0c-.12-.4-.22-.83-.32-1.25S85.42,126.27,85.31,125.85Zm3.55,2.37a1.51,1.51,0,0,0-.92-.84l-.57-.06c.09.43.2.85.3,1.27s.21.85.33,1.29a.87.87,0,0,0,.23.51.54.54,0,0,0,.34.16h.2c.26,0,.4-.16.44-.45a3.07,3.07,0,0,0-.1-1.08A4.18,4.18,0,0,0,88.86,128.22Zm8.85-3.41a1,1,0,0,0-.56-.23c-.44,0-.78.23-1,.76a7,7,0,0,0-.35.93c-.11.37-.2.77-.29,1.24,0,0,0,.09,0,.17s0,.14,0,.18a7.91,7.91,0,0,0-.1,1.76,2.64,2.64,0,0,0,.33,1.21.94.94,0,0,0,.72.5h0a.88.88,0,0,0,.78-.4,3.85,3.85,0,0,0,.51-1.15,11.88,11.88,0,0,0,.36-1.53c0-.09,0-.21,0-.34s.05-.26.05-.33a8.23,8.23,0,0,0,.06-1.26,3.87,3.87,0,0,0-.14-.91A1.79,1.79,0,0,0,97.71,124.81Zm28.37-30.08a4.52,4.52,0,0,1-3.7,1.62,5.07,5.07,0,0,1-3-.93,3.94,3.94,0,0,0,3.17,1.46A3.66,3.66,0,0,0,126.08,94.73Zm-15.33,8.61c.27-.37.75-.09,1.13,0s.65-.11.67-.44C112.5,102,110.85,102.75,110.75,103.34Zm24.9,4.84c.1-1.43-1.7-3.68-5.42-4.52,2.58-2.88,3.73-5.75,3.78-8.52.16-10.15-9.59-16.44-16.29-21-2.87-1.95-3.54-3.56-2-4.83,1,3.11,3.06,3.75,6.24,2,1-.54,5.15-2.33,6.25-.47.8,1.3.17,3-2.16,3.11.09.4.17.81.26,1.22,3.23.2,5.27-2.4,3.8-5.29,1.5-1.95-.28-5-4.8-4.29.67-1.43.29-2.41-.66-2.63.09,1.49-1,1.19-1.43.43-.3-.55-.56-.89-.86-1,1.24-1.06-1-2.65,2.08-3.76a5,5,0,0,0-3-1c1.16-1.33,1.4-3.13.5-5.49a2,2,0,0,1-1,1.14c-1.2-1.91-2.35-2.21-3.35-2.21a2.21,2.21,0,0,0-2.14,1.4l.8.32a1.27,1.27,0,0,1,.91-.6c.94,0,1.55,1.18,1.41,2.19-.25,1.75-2.8,2.9-3.8,3.35-1.42.64-4.17,2-4.18,4.06a3,3,0,0,0,2.13,2.72,9.57,9.57,0,0,0-3.52,2.68l.57-8.57-2.17-.2L108,56.3l-1-.22.57-2.86,1,.21.49-2.16-.9-.21,3.77-18.66c-3-.81-6.11-1.48-9.2-2L102,34.84l-1.57-.2.42-4.58c-3.38-.54-6.79-.93-10.21-1.17l-.44,4.62-3.15-.17.07-4.65q-4.83-.2-9.64,0v4.68l-3.21.13-.4-4.61c-3.4.24-6.78.62-10.13,1.17l.4,4.66-1.56.14-.7-4.49c-3.1.55-6.16,1.22-9.19,2l3.78,18.66-.91.21.49,2.16,1-.21.56,2.86-1.06.22L57,58.46l-2.17.2.56,8.49a9.79,9.79,0,0,0-3.45-2.6A3,3,0,0,0,54,61.83c0-2-2.76-3.42-4.17-4.06-1-.45-3.55-1.6-3.8-3.35-.15-1,.47-2.17,1.4-2.19a1.27,1.27,0,0,1,.91.6l.81-.32A2.21,2.21,0,0,0,47,51.11c-1,0-2.15.3-3.36,2.21a2,2,0,0,1-1.05-1.14c-.89,2.36-.66,4.16.5,5.49a5,5,0,0,0-2.95,1c3.08,1.11.85,2.7,2.08,3.76-.29.08-.56.42-.85,1-.4.76-1.54,1.06-1.43-.43-1,.22-1.34,1.2-.66,2.63-4.53-.69-6.31,2.34-4.8,4.29-1.48,2.89.57,5.49,3.79,5.29.08-.41.18-.82.26-1.22-2.32-.07-3-1.81-2.16-3.11,1.1-1.86,5.26-.07,6.26.47,3.17,1.74,5.28,1.1,6.24-2,1.49,1.27.82,2.88-2,4.83C40.16,78.7,30.4,85,30.57,95.14a13.08,13.08,0,0,0,3.77,8.52c-3.71.84-5.51,3.09-5.42,4.52s1.83,4.18,5.94,4.18c-4.11-4.36-1.87-5.82,6.89-4.91a42.16,42.16,0,0,0-7.32,1.46,19.05,19.05,0,0,1,2.42,8.8c-2.32,1.15-3.94,2.59-3.92,3.57,0,1.61,1.2,9.18,3.79,12.68,1.42,1.93,6.13,2.52,9.55,2.21C60.36,134.89,71.44,133,82.41,133s21.79,1.93,35.9,3.21c3.41.31,8.13-.28,9.55-2.21,2.58-3.5,3.77-11.07,3.79-12.68,0-1-1.6-2.42-3.92-3.57a18.8,18.8,0,0,1,2.41-8.8,42.16,42.16,0,0,0-7.32-1.46c8.76-.91,11,.55,6.9,4.91C133.83,112.36,135.56,109.61,135.65,108.18ZM122.24,87.29a2.61,2.61,0,0,0-2.63,1.59c.15.13.32.25.46.38,2.24-1.75,3.71.91,3.34,2.09-.93,2.93-3.56,2.41-5,2.1-2.65-.55-7.56-1.36-8.13,3.4a1.91,1.91,0,0,0-1.31,2.35c-.76,0-1.26.42-1.5,1.31a2.6,2.6,0,0,0-.47.15l1.82-27.44C111.13,78.21,119,82.89,122.24,87.29Zm-32.17,17.8-.54,2.23-.07.34-.41,1.9-.4.14-.19.06-.19.06-.19.06-.19.06-.2,0-.19.06-.18,0-.2,0-.21,0-.19,0-.2,0-.2,0-.2,0-.19,0-.22,0-.2,0-.2,0-.2,0-.21,0-.21,0-.21,0h-.21l-.22,0-.22,0h-.42l-.23,0H81.61l-.22,0H81l-.23,0-.21,0H80.3l-.21,0-.21,0-.21,0-.21,0-.2,0-.21,0-.21,0-.2,0-.2,0-.2,0-.2,0-.2-.05-.2,0-.2,0-.2,0-.19,0-.2,0-.19-.06-.19,0-.19-.05-.18-.06-.21-.06-.39-.14-.46-1.9-.07-.34-.53-2.23,1-.31-1.57-8.26.42-.15.09,0,.09,0,.1,0,.08,0,.1,0,.09,0,.1,0,.09,0,.09,0,.1,0,.1,0,.1,0,.09,0,.1,0,.1,0,.09,0,.09,0,.11,0,.1,0,.1,0,.09,0,.11,0h.1l.11,0,.09,0h.11l.09,0,.1,0,.11,0,.11,0,.53-.1.33,2.24.38,0-.14-2.28.47-.07.09,0h.17l.09,0,.09,0h.27l.09,0h.18l.1,0h.45l.09,0h1.11l.52,0V97.4h.43V95.11l.51,0h1.11l.1,0h.46l.08,0h.19l.08,0h.27l.09,0,.08,0h.19l.08,0,.48.07L86,97.69l.41,0,.32-2.24.53.1.09,0,.11,0,.1,0,.11,0h.1l.1,0,.1,0h.1l.11,0,.1,0,.09,0,.1,0,.1,0,.11,0,.09,0,.1,0L89,96l.1,0,.09,0,.1,0,.1,0,.1,0,.09,0,.09,0,.09,0,.1,0,.09,0,.09,0,.09,0,.1,0,.42.15-1.58,8.26Zm-1-17.7,1,.32-.54,2.23-.07.35-.41,1.88-.4.15-.19.07-.19,0-.19.06-.19.06-.2.06-.19,0-.18,0-.2,0-.21,0-.19,0-.2,0-.2,0-.2,0-.19,0-.22,0-.2,0-.2,0-.2,0-.21,0-.21,0-.21,0-.21,0h-.44l-.21,0H81l-.23,0-.21,0H80.3l-.21,0h-.21l-.21,0-.21,0-.2,0-.21,0-.21,0-.2,0-.2,0-.2,0-.2,0-.2,0-.2,0-.2,0-.2,0-.19-.06-.2,0-.19-.06-.19,0-.19-.06-.18-.06-.21-.06-.39-.14L75,90.29,75,89.94l-.53-2.23,1-.32-1.57-8.25.42-.15.09,0,.09,0,.1,0,.08,0,.1,0,.09,0,.1,0,.09,0,.09,0,.1,0,.1,0,.1,0,.09,0,.1,0,.1,0,.09,0,.09,0,.11,0,.1,0,.1,0,.09,0,.11,0,.1,0,.11,0,.09,0,.11,0,.09,0,.1,0h.11l.11,0,.53-.09.33,2.24.38,0L78.32,78l.47-.07h.09l.08,0,.09,0H80l.09,0h.28l.09,0H81l.09,0h1V80h.43V77.74h1l.09,0h.55l.1,0h.27l.09,0h.89l.1,0,.09,0h.08l.48.07L86,80.31l.41,0,.32-2.24.53.09.09,0h.11l.1,0,.11,0,.1,0,.1,0,.1,0,.1,0,.11,0,.1,0,.09,0,.1,0,.1,0,.11,0,.09,0,.1,0,.09,0,.1,0,.09,0,.1,0,.1,0,.1,0,.09,0,.09,0,.09,0,.1,0,.09,0,.09,0,.09,0,.1,0,.42.15Zm0-17.49,1,.32-.54,2.23-.07.35-.41,1.88-.4.15-.19.06-.19.06-.19.06-.19,0-.2.06-.19.06-.18,0-.2,0-.21,0-.19,0-.2,0-.2,0-.2,0-.19,0-.22,0-.2,0-.2,0-.2,0-.21,0-.21,0-.21,0-.21,0h-.22l-.22,0H81.17l-.21,0h-.23l-.21,0-.22,0h-.21l-.21,0-.21,0-.21,0-.2,0-.21,0-.21,0-.2,0-.2,0-.2,0-.2,0-.2,0-.2,0-.2,0-.2-.05-.19,0-.2,0-.19-.06L76.47,75l-.19,0-.18-.06-.21-.06-.39-.13L75,72.8,75,72.45l-.53-2.23,1-.32-1.57-8.26.42-.14.09,0,.09,0,.1,0,.08,0,.1,0,.09,0,.1,0,.09,0,.09,0,.1,0,.1,0,.1,0,.09,0,.1,0,.1,0,.09,0,.09,0L76,61l.1,0,.1,0,.09,0,.11,0,.1,0,.11,0,.09,0,.11,0,.09,0H77l.11,0,.11,0,.53-.09.33,2.25.38,0-.14-2.29.47-.06.09,0H79l.09,0h.54l.1,0h1.36l.1,0H82v2.28h.43V60.25h.88l.1,0h1.38l.09,0h.52l.1,0h.09l.08,0,.48.06L86,62.82l.41,0,.32-2.25.53.09.09,0,.11,0h.1l.11,0,.1,0,.1,0,.1,0,.1,0,.11,0,.1,0,.09,0,.1,0,.1,0,.11,0,.09,0,.1,0,.09,0,.1,0,.09,0,.1,0,.1,0,.1,0,.09,0,.09,0,.09,0,.1,0,.09,0,.09,0,.09,0,.1,0,.42.14ZM82.22,56.34a108.4,108.4,0,0,0-23.67,2.5,82.31,82.31,0,0,1,23.67-3.31,82.24,82.24,0,0,1,23.66,3.31A108.31,108.31,0,0,0,82.22,56.34Zm-24.13,47.3a10.67,10.67,0,0,0,2.37,3.9,16.12,16.12,0,0,0-5.74-1.41A9.08,9.08,0,0,0,58.09,103.64Zm-.17-22.92L57.49,74H72.86l0,6.7Zm1,15.63-.45-7.18H72.93l0,7.18ZM73,104.46l0,7.15c-6.14-1.15-10.36-3.4-12.49-7.15ZM91.68,89.17h14.48l-.46,7.18h-14Zm-.06,15.29h12.45c-2.12,3.75-6.36,6-12.49,7.15Zm14.83-.88a8.87,8.87,0,0,0,3.41,2.55,15.89,15.89,0,0,0-5.84,1.46A10.81,10.81,0,0,0,106.45,103.58ZM91.72,80.72l0-6.7h15.38l-.43,6.7ZM108,60.15l-.33,5.31H91.8l0-7A108.44,108.44,0,0,1,108,60.15Zm-.9-9c-.45-.16-.91-.31-1.39-.45l1-4a.86.86,0,0,1,1-.63.88.88,0,0,1,.42.24Zm1.68-8.24-.68-.19.31-1.59c.24.07.47.13.69.21Zm.83-4.06a6.52,6.52,0,0,0-.63-.18l.35-1.68.62.19ZM103,31.6l.89.16-.19,2.3,2,.33.37-2.22c.56.1,1.13.22,1.68.34l-.41,2.3,1.94.42.5-2.29,1,.21-.72,3.52c-.51-.16-1-.32-1.58-.45l-.14.45.48.14-.35,1.67-.63-.17-.15.45c.64.17,1.25.35,1.83.53l-.31,1.53c-.64-.19-1.3-.38-2-.55l-.14.45.82.23-.33,1.59-1-.26-.15.45c.78.2,1.53.4,2.23.62l-.26,1.26h0a2.07,2.07,0,0,0-2.49,1.53l-1,4.29c-.59-.17-1.18-.33-1.81-.48L107.24,36l0,0,0-.08q-2.23-.54-4.74-1Zm-2.4,15.87.26-1.47c.72.13,1.42.27,2.1.41l-.45,1.43C101.93,47.71,101.28,47.59,100.63,47.47Zm1.78.8L102,49.68l-.38-.08.25-1.44Zm-.16-2.48.32-1.78,1.09.23L103.13,46Zm3.29-7.56-.48,1.53c-1.06-.24-2.17-.45-3.33-.65l.29-1.59C103.24,37.74,104.41,38,105.54,38.23Zm-1.87-.85.28-1.53,2.21.37-.49,1.57C105,37.64,104.36,37.51,103.67,37.38Zm-.43,2.46,1.68.36-.48,1.58c-.49-.11-1-.22-1.49-.31Zm1.06,2.37-.5,1.6c-.83-.18-1.71-.34-2.6-.51l.29-1.65C102.46,41.82,103.39,42,104.3,42.21Zm-.88-6.45-.27,1.51-1.89-.33-.07.44.29,0L101.19,39,101,39l-.06.45c.62.1,1.21.21,1.8.32l-.3,1.63-1.72-.31,0,.45.32.05-.3,1.65-.26,0-.06.43,1.69.32-.31,1.77-1.62-.28,0,.44a1.45,1.45,0,0,0,.3,0l-.26,1.49-.25,0-.07.43,1.53.28-.26,1.42c-.84-.18-1.73-.35-2.64-.5l1.77-13.76Zm-9.29-3.07.69.08.26-2.32,1.75.22-.16,2.27,1.58.25.34-2.28,1.24.18-.43,3.34-.74-.1,0,.43.73.11-.22,1.74-.7-.09,0,.43.69.1-.2,1.61-.66-.1,0,.43.65.08-.21,1.67c-.21,0-.42-.07-.64-.09l0,.43.63.1-1,7.65a3.49,3.49,0,0,1-.43-.07l.63-4.58A2.06,2.06,0,0,0,96,41.88a2.16,2.16,0,0,0-1.63.47c-.33,0-.66-.07-1-.1l.08-1.7,1.47.16,0-.16h0l.19-1.93h0l0-.42L93.71,38l.08-1.62,1.6.17,0-.16h0l.2-2h0l0-.43c-.53,0-1.07-.11-1.61-.15ZM92.48,46.82h.09l.64.06L93,48.24l-1.55-.16.1-1.34Zm-.87-.51.11-1.51.85.08-.08,1.52Zm1.41.14.09-1.52.35,0-.2,1.5Zm-1.27-2.07.14-1.83c.7.05,1.4.13,2.1.2a2,2,0,0,0-.35.88l-.12.91Zm1.5-8L93.17,38l-.94-.08.11-1.62Zm-.87-.49.13-1.78c.88.07,1.74.15,2.59.24l-.17,1.77C94.09,36,93.25,35.94,92.38,35.88Zm2.22,2.68-.16,1.67c-.78-.09-1.57-.16-2.37-.23l.13-1.66C93,38.39,93.81,38.48,94.6,38.56ZM92.92,40.5l-.09,1.71-.91-.08.12-1.7ZM94.45,44a.84.84,0,0,1,1.66.23l-.58,4.27-1.68-.2ZM91.29,30.11c.58,0,1.15.09,1.73.15L93,32.56l.65.06-.06,1.15c-.78-.07-1.58-.14-2.38-.19ZM86.68,34l4.84.22-.11,1.57-1.17-.08,0,.42,1.16.08-.12,1.62-1.12-.09,0,.43,1.1.07-.11,1.68L90,39.85l0,.42,1.07.07L91,42.05l-1-.07,0,.42,1,.07L90.8,44.3l-1-.07,0,.41c.32,0,.64.06,1,.08l-.11,1.51-.93-.07,0,.42.92.08L90.53,48c-1.39-.11-2.81-.19-4.26-.25Zm-7.34-4.2.07,2.78,1.77-.08.07-2.71H83L83,32.51l1.8.08.06-2.78,1,0-.1,3.59L85,33.37l0,.44.77,0,0,1.78-.77,0V36l.76,0,0,1.63-.77,0V38l.75,0,0,1.67-.75,0v.42l.75,0,0,1.71-.75,0v.42l.74,0-.05,1.83-.74,0,0,.42.75,0,0,1.52-.75,0v.42l.73,0,0,1.22q-.68,0-1.35,0V43.2a2.05,2.05,0,0,0-4.1,0v4.49c-.38,0-.75,0-1.12,0l0-1.22.74,0V46l-.74,0,0-1.52.75,0v-.42l-.75,0,0-1.83c.25,0,.49,0,.74,0v-.42l-.75,0,0-1.71.75,0v-.42l-.75,0,0-1.67.75,0,0-.42-.75,0,0-1.63.76,0,0-.41-.75,0,0-1.78.76,0v-.44l-.76.05-.09-3.59ZM83.21,43.5v4.17H81.55V43.5a.83.83,0,0,1,1.66,0ZM77.55,34,78,47.75c-1.44.06-2.85.14-4.22.25l-.1-1.34.91-.08,0-.42-.92.07-.1-1.51c.31,0,.63,0,.94-.08v-.41l-1,.07-.13-1.83,1-.07V42l-1,.07-.12-1.71,1-.07v-.42l-1.06.08-.12-1.68,1.09-.07,0-.43-1.1.09-.12-1.62,1.15-.08,0-.42-1.14.08-.12-1.57Zm-7.22,8.74c.69-.07,1.38-.15,2.09-.2l.13,1.83-1.76.16-.12-.91A2.13,2.13,0,0,0,70.33,42.75Zm.13,5.58-1.65.2-.58-4.27A.83.83,0,0,1,69.88,44Zm1.49-12,.12,1.62-.92.08-.09-1.62Zm-2.54-.18-.17-1.77q1.26-.14,2.55-.24l.13,1.78C71.07,35.94,70.23,36,69.41,36.11Zm2.69,2.23L72.22,40c-.79.07-1.57.14-2.34.23l-.15-1.67C70.5,38.48,71.3,38.39,72.1,38.34Zm.17,2.09.11,1.7-.9.08-.09-1.71Zm.31,4.37.11,1.51-.87.09-.09-1.52Zm-1.37.13.07,1.52-.22,0L70.85,45Zm.52,1.9h.1l.89-.08.1,1.34-1.53.16-.18-1.35Zm-.44-16.57c.58-.06,1.14-.11,1.71-.15l.13,3.47c-.8.05-1.59.12-2.36.19l0-1.15.63-.06Zm-5.51.65.34,2.28,1.57-.25-.17-2.27,1.74-.22.24,2.32.69-.08.06,1.13c-.54,0-1.07.1-1.61.15l.06.43h0l.2,2h0l0,.16,1.59-.17L70.61,38l-1.48.16.05.42h0l.19,1.93h0v.16l1.45-.16.09,1.7c-.33,0-.65.08-1,.1a2.13,2.13,0,0,0-1.62-.47,2,2,0,0,0-1.74,2.3l.62,4.58a3.49,3.49,0,0,1-.43.07l-1-7.65.61-.1,0-.43-.63.09-.2-1.67.65-.08,0-.43-.67.1-.2-1.61L66,37l0-.43-.69.09L65,34.87l.72-.11-.05-.43-.73.1-.42-3.34Zm-1.57,4.31L66,49c-.89.15-1.77.32-2.62.5l-.24-1.42,1.49-.28,0-.43-.25,0L64,45.9a1.81,1.81,0,0,0,.31,0l-.06-.44-1.59.28-.32-1.77L64,43.6,64,43.17l-.25,0-.3-1.65.32-.05-.06-.45-1.7.31-.28-1.63,1.77-.32L63.41,39l-.2.05-.28-1.59.28,0-.07-.44-1.87.33L61,35.76ZM61.88,47.84l-.44-1.43c.67-.14,1.35-.28,2.06-.41l.27,1.47C63.12,47.59,62.49,47.71,61.88,47.84Zm.94,1.76-.38.08L62,48.27l.57-.11ZM62.4,37.52l.28,1.59c-1.14.2-2.24.41-3.29.65l-.47-1.53C60,38,61.19,37.74,62.4,37.52Zm-3.62.27-.48-1.57,2.18-.37.28,1.53C60.08,37.51,59.42,37.64,58.78,37.79Zm2.41,2.05.28,1.63c-.49.09-1,.2-1.46.31l-.48-1.58Zm1.72,1.81.3,1.65c-.89.17-1.75.33-2.58.51l-.49-1.6C61,42,62,41.82,62.91,41.65ZM61.85,44l.31,1.78-.87.18-.52-1.73Zm-7.31-6.87.62-.19.34,1.68q-.31.07-.63.18Zm.85,4.16c.21-.08.44-.14.67-.21l.32,1.59-.68.19Zm.67,3.31-.26-1.26c.7-.22,1.43-.42,2.19-.62l-.13-.45-1,.26L56.57,41l.81-.23-.14-.45c-.68.17-1.33.36-2,.55L55,39.29c.59-.18,1.2-.36,1.82-.53l-.15-.45-.63.17-.34-1.67.47-.14L56,36.22c-.54.13-1.06.29-1.56.45l-.71-3.52,1-.21.49,2.29,1.93-.42-.42-2.3c.55-.12,1.11-.24,1.66-.34l.37,2.22,1.95-.33-.18-2.3.89-.16.51,3.32q-2.49.45-4.68,1V36L61.32,50c-.61.15-1.2.31-1.79.48l-1-4.29a2.06,2.06,0,0,0-2.47-1.53Zm.33,1.62a.81.81,0,0,1,.4-.24.84.84,0,0,1,1,.63l.94,4c-.47.14-.92.29-1.37.45Zm.82,6.38-.62.08-.14-.63c6-2.28,15.21-3.74,25.48-3.77h.32c10.38,0,19.67,1.49,25.79,3.77l-.15.63-.63-.08c-6.15-2.13-15.15-3.48-25.17-3.49S63.29,50.48,57.21,52.61ZM82.09,51C72.6,51,64,52.23,58,54.2L57.76,53c6-2,14.62-3.28,24.17-3.31h.32c9.66,0,18.37,1.3,24.46,3.31l-.23,1.16C100.35,52.23,91.68,51,82.09,51Zm24.27,3.8L106.12,56c-6.1-1.91-14.62-3.11-24-3.12S64.36,54.05,58.33,56L58.1,54.8c6-1.95,14.47-3.17,23.83-3.2h.32C91.72,51.63,100.28,52.85,106.36,54.8ZM81.93,53.47h.32c9.85,0,18.71,1.34,24.81,3.41L106.73,58a90.93,90.93,0,0,0-24.48-3.28h-.32A89.14,89.14,0,0,0,57.72,58l-.32-1.09C63.45,54.81,72.19,53.49,81.93,53.47Zm-9.14,5,0,7H56.94l-.34-5.31A108.57,108.57,0,0,1,72.79,58.49ZM57.57,100.62l-.42-.11c-.24-.89-.75-1.32-1.49-1.31a1.9,1.9,0,0,0-1.32-2.35c-.57-4.76-5.47-3.95-8.12-3.4-1.49.31-4.12.83-5-2.1-.38-1.18,1.09-3.84,3.33-2.09l.47-.38a2.62,2.62,0,0,0-2.63-1.59c3.26-4.37,11-9,13.42-14ZM37.3,106.48c-3.07.25-4.94.89-5,2.44a4.18,4.18,0,0,0,1,2.31,3.52,3.52,0,0,1-2.55-3c-.06-1.52,1.53-4.89,6.7-3.84-1.32-1.32-.57-1.84-.78-2.82,3.5-.56,4.57,4.5,8.19,2.75-3.18.42-4.93-4.53-9.08-2.91.58.84-.35,1.33.35,2.44-.18,0-.37-.14-.54-.19a12.41,12.41,0,0,1-3.86-9.37c.12-4.8,1.22-8.35,6.89-13.23,3.49-3,12.74-7.42,12.07-10.57a2.72,2.72,0,0,0-2.24-2c.09,2.94-3,3.38-6.13,1.69-6.06-3.26-8.84,1.63-4.92,3.94-2.84.05-3.28-2.39-2.22-4.28a2,2,0,0,1,.2-2.7c.71-.78,2.52-1.09,3.9-.86,2.34.4,3.58,2.26,4.85,2.42a1.26,1.26,0,0,0,1.2-.53c.68-1.16-.65-1.46-2.41-1.53a3.3,3.3,0,0,1-3-2.71c1,1.39,1.69-.76,2.76-.81,1.3-.09,2,1.71,3.16,2.49.87.57,1.83.57,2.2-.09.28-.48,0-1.19-1.16-1.94-.81-.53-2.88-.44-3.59-1.23a1.37,1.37,0,0,1-.25-1.55,1.73,1.73,0,0,0-1-1.82c2.37-1.82,4.44,1.31,5.24,2.24,1,1.12,1.79.38,2,.14s.65-1.1-.66-1.72S44.13,58.27,43,56.44c-.47-.71-.31-1.83-.08-3,.62.5.69.74,1.45,1.43a3.58,3.58,0,0,1,.67-2.4,2.21,2.21,0,0,1,1.88-.5A2.71,2.71,0,0,0,45.41,54c0,1.16.77,2.47,3.74,3.93,1.22.61,3.82,2,3.88,3.67S51.61,64,50.32,64.49c3.27,1.66,4.66,3.55,5,5.56.78,4.41-5.53,9.13-11,14,2.83-5,11.33-8.63,8.51-14.93l-.32.11c2.46,7-8,10.15-11.8,18.41A3.28,3.28,0,0,0,39.28,91a1,1,0,0,1-1.07-1.33,2.25,2.25,0,0,0-.81,3.93c-1.58,1.5-1.26,4.13,1.58,4.86a2.4,2.4,0,0,0-.8,1.77,8.55,8.55,0,0,1,1.21.3,2.26,2.26,0,0,1,.89-2.09c-2-.43-2.49-1.43-2.63-2.32A2.68,2.68,0,0,1,39,93.44c-.86-.67-2-1.38-.86-2.5a1.45,1.45,0,0,0,1.7.55c-.4-2.7,1.18-3.66,2.91-3a3.13,3.13,0,0,0-2.11,3c0,1.41,1.14,3.93,5.9,2.51,1.46-.43,4-.83,5.46,0a2.57,2.57,0,0,1,1,3.51c-1.19-2.24-3.16-1.36-4.52-1.07,1.29.16,2.39-.27,3.3.54.67.61,1,1.34.26,2.08A3.74,3.74,0,0,0,49.41,98c-2.88-.08-2.81,3-9.45,2.71a7.51,7.51,0,0,0,5,0,6.49,6.49,0,0,0,5.24,1.88c1.36-.06,3-.91,2.22-3a2.84,2.84,0,0,0,1.74-1.9c1,.76.89,2.2-.76,3.52a2.45,2.45,0,0,0,2.2-1.47c1,.34.94,1.69-.65,3.14a2.72,2.72,0,0,0,2-1.63c.72-.08.8.44.82.72,0,1.33-2.18,2.53-3.6,2.84s-2.75-.08-4.1,0c-.88,0-1.52.35-1.53.91a1.19,1.19,0,0,0,.26.67c.25-1,2-1.09,2.12-.58.1.35-1.76,1.14-4.35,1.26C43.78,107.13,40.4,106.24,37.3,106.48Zm5.51-39.15v0c.46,0,1.14.26,1.57.26,0,0,.07.17.12.17v.22s-.12.12-.17.12c-.42.16-.8-.34-1.14-.43,0,0-.13-.13-.17-.13s-.12-.12-.17-.12ZM45,63.67a3.09,3.09,0,0,0,.42.25,1.08,1.08,0,0,0,.38,0c.25,0,.76.46,1,.46,0,0,.12.16.17.16a.74.74,0,0,0,.21.3c0,.09,0,.22,0,.26l0,0,0,0c-.38,0-.5-.13-.84-.35-.12-.08-.84-.66-.84-.84-.08,0,0-.05-.08-.05s-.05-.07-.09-.07l0-.05v-.08Zm2-4.1c.17,0,1.15.34,1.15.55h.08a.51.51,0,0,0,.2.21c0,.05,0,.08.09.12v.35l0,0h-.38l-.09,0c-.12-.09-.25-.35-.42-.42a.09.09,0,0,0-.09-.09A2.91,2.91,0,0,0,47,59.57Zm.89,40.18a1.37,1.37,0,0,1,1.77-1.2,2.05,2.05,0,0,1,1.78,1.8c0,.82-.8,1.36-1.78,1.2A2.05,2.05,0,0,1,47.88,99.75Zm1.65,2.2a4,4,0,0,1-3.43-1.66,8,8,0,0,0,1.16-.6A2.68,2.68,0,0,0,49.53,102ZM34.61,120.81c0-.59.24-1.47,2.19-2.33a9.91,9.91,0,0,1-.18,2.48c5.06-2.17,12.3-3.15,16.68-3.35,4-.18,9.75,1.16,9.84,3,0,.69-.55,1.13-2,1.4-9.44.61-15.44,1.92-19.65,1.87C36.67,123.77,34.74,122.65,34.61,120.81Zm3.82,12.09c0-.08,0-.18,0-.28a.87.87,0,0,0,.44,0,.33.33,0,0,0,.17-.21,1.41,1.41,0,0,0,0-.49c-.18-.89-.45-1.76-.71-2.65s-.51-1.76-.7-2.65a2.63,2.63,0,0,0-.12-.47.8.8,0,0,0-.24-.28,2.19,2.19,0,0,0-.46-.16,2.26,2.26,0,0,0,0-.26c.9.1,1.82.21,2.74.29V126a1.31,1.31,0,0,0-.41,0c-.09,0-.15.09-.21.2a1,1,0,0,0,0,.58c.18.86.41,1.72.65,2.58s.5,1.73.68,2.59a4.05,4.05,0,0,0,.16.68.69.69,0,0,0,.25.32,1.25,1.25,0,0,0,.47.16,2.44,2.44,0,0,0,0,.28C40.22,133.28,39.32,133.09,38.43,132.9Zm7.27,1.17a34.65,34.65,0,0,0-2.19-3.28c-.82-1.09-1.67-2.16-2.48-3.25h0c.18.8.4,1.6.6,2.41s.45,1.6.6,2.4a1.66,1.66,0,0,0,.27.74,1,1,0,0,0,.57.31.8.8,0,0,0,0,.28q-.87-.09-1.71-.21c0-.09,0-.19,0-.28h.26l.12-.06a.21.21,0,0,0,.1-.09.56.56,0,0,0,.09-.3,3,3,0,0,0-.08-.6c-.18-.88-.42-1.76-.66-2.63s-.45-1.75-.63-2.62c-.19-.27-.33-.49-.43-.61a.55.55,0,0,0-.32-.24c0-.09,0-.2,0-.3l1.62.09a29.47,29.47,0,0,0,1.74,2.54c.63.86,1.29,1.73,1.94,2.58-.15-.61-.31-1.22-.46-1.83s-.26-1.22-.38-1.83a2.16,2.16,0,0,0-.31-.82.65.65,0,0,0-.55-.3c0-.1,0-.19,0-.3l1.64,0c0,.11,0,.21,0,.31l-.21.07a.35.35,0,0,0-.26.19,1,1,0,0,0,0,.62c.21,1.18.5,2.36.78,3.53a26.86,26.86,0,0,1,.57,3.52Zm2.07-.19c0-.1,0-.2,0-.31a.56.56,0,0,0,.54-.25,1.28,1.28,0,0,0,0-.83c-.19-1.06-.42-2.12-.65-3.17a32,32,0,0,1-.53-3.18,1.4,1.4,0,0,0-.78.26,1.13,1.13,0,0,0-.38.68,3.54,3.54,0,0,0,0,1.14h-.22c-.08-.4-.16-.8-.22-1.2a11.93,11.93,0,0,1-.1-1.19c1.53,0,3.05-.12,4.58-.21,0,.39,0,.79.1,1.2s.12.81.2,1.21l-.23,0a5.32,5.32,0,0,0-.59-1.46,1.22,1.22,0,0,0-1.12-.51c.11,1.08.3,2.16.52,3.24s.47,2.14.64,3.23a1.68,1.68,0,0,0,.24.77.76.76,0,0,0,.57.19c0,.1,0,.2,0,.3C49.5,133.83,48.63,133.87,47.77,133.88Zm7.42-.45c-.29-.59-.59-1.2-.93-1.8s-.72-1.22-1.08-1.82H53c.08.42.17.85.23,1.26s.13.83.18,1.26a1.6,1.6,0,0,0,.13.58.44.44,0,0,0,.21.23,2.77,2.77,0,0,0,.4.09,1.42,1.42,0,0,1,0,.29c-.82.08-1.63.15-2.43.2l0-.31a1,1,0,0,0,.4-.15.63.63,0,0,0,.14-.33,2.37,2.37,0,0,0,0-.69c-.15-.89-.32-1.77-.49-2.66s-.33-1.77-.46-2.65c0-.27-.08-.47-.11-.61a.56.56,0,0,0-.63-.44,1.46,1.46,0,0,0,0-.3l2.5-.18a2,2,0,0,1,1.32.25,1.67,1.67,0,0,1,.69.78,3.3,3.3,0,0,1,.27,1,2.34,2.34,0,0,1,0,.66,2,2,0,0,1-.22.78,1.35,1.35,0,0,1-.66.63c.31.5.63,1,.94,1.51s.59,1,.86,1.5a2.5,2.5,0,0,0,.24.42.22.22,0,0,0,.21.06,1.5,1.5,0,0,1,0,.29Zm6-1.9c0,.42-.05.84-.08,1.25-1.43.16-2.85.34-4.27.49V133a.9.9,0,0,0,.48-.26,1.13,1.13,0,0,0,.09-.7c-.12-.91-.24-1.85-.39-2.76s-.27-1.84-.37-2.77c0-.27-.06-.46-.09-.6a.51.51,0,0,0-.67-.4v-.31c1.46-.13,2.93-.25,4.39-.4,0,.4,0,.8.07,1.2s.06.79.11,1.19h-.19c-.19-1-.52-1.62-1-1.76a2.15,2.15,0,0,0-.82-.07.86.86,0,0,0-.46.14c-.1.07-.15.24-.13.5,0,.46.09.91.15,1.37s.13.92.18,1.37a1.18,1.18,0,0,0,.64-.21,1.13,1.13,0,0,0,.31-.59,4.66,4.66,0,0,0,.06-1.08l.2,0c.07.69.16,1.35.25,2s.17,1.32.26,2l-.2,0a3.91,3.91,0,0,0-.3-1.06,1.48,1.48,0,0,0-.39-.52,1,1,0,0,0-.43-.14h-.33c.06.49.14,1,.21,1.48s.12,1,.16,1.48a.58.58,0,0,0,.18.46.82.82,0,0,0,.55.07c.9-.11,1.47-.88,1.66-2.29a.93.93,0,0,1,.24,0C61.23,130.71,61.21,131.12,61.2,131.53Zm4.12-3.63a1.88,1.88,0,0,1-.84.79,5.06,5.06,0,0,1-1.26.25c.05.38.1.76.14,1.15s.07.77.09,1.16a1.63,1.63,0,0,0,.12.57.35.35,0,0,0,.18.21,2,2,0,0,0,.39.07,2.64,2.64,0,0,0,0,.29c-.82.11-1.63.22-2.44.31,0-.09,0-.2,0-.3a.79.79,0,0,0,.38-.17.54.54,0,0,0,.16-.33,2.8,2.8,0,0,0,0-.67c-.08-.88-.18-1.73-.29-2.61s-.19-1.73-.26-2.59a4.16,4.16,0,0,0-.1-.59.54.54,0,0,0-.19-.32A.72.72,0,0,0,61,125a2.81,2.81,0,0,0,0-.29c.84-.07,1.67-.15,2.51-.2a1.78,1.78,0,0,1,1.3.27,1.63,1.63,0,0,1,.6.82,3.49,3.49,0,0,1,.19.94A2.39,2.39,0,0,1,65.32,127.9Zm.9,4.24a2.62,2.62,0,0,0,0-.29,1.46,1.46,0,0,0,.43-.18.51.51,0,0,0,.19-.3,2,2,0,0,0,0-.51c0-.91-.12-1.82-.18-2.72s-.17-1.81-.22-2.72a1.75,1.75,0,0,0-.07-.48.42.42,0,0,0-.21-.24,1.05,1.05,0,0,0-.46-.08,2.72,2.72,0,0,0,0-.28l2.69-.19a2.62,2.62,0,0,1,0,.28,2.26,2.26,0,0,0-.41.11.43.43,0,0,0-.21.24,1,1,0,0,0-.07.6c0,.86.11,1.72.17,2.6s.12,1.72.17,2.58a3.48,3.48,0,0,0,.09.67.39.39,0,0,0,.2.26,1.41,1.41,0,0,0,.46,0c0,.1,0,.21,0,.29C67.93,131.93,67.07,132,66.22,132.14Zm7.08-1.84a2.76,2.76,0,0,1-2.15,1.25l-2.11.24a2.26,2.26,0,0,1,0-.26,1,1,0,0,0,.38-.19.55.55,0,0,0,.17-.3,2.46,2.46,0,0,0,0-.6c0-.75-.07-1.5-.13-2.27s-.08-1.52-.13-2.27c0-.41,0-.69-.06-.89a1.6,1.6,0,0,0-.09-.4.4.4,0,0,0-.23-.16l-.33-.07a1.92,1.92,0,0,0,0-.24l2.42-.15a2.4,2.4,0,0,1,1.4.3,2.65,2.65,0,0,1,.89.87,4.63,4.63,0,0,1,.44,1.08,4.5,4.5,0,0,1,.16,1A5.33,5.33,0,0,1,73.3,130.3ZM77,131a2.62,2.62,0,0,0,0-.27,1.51,1.51,0,0,0,.44-.08.39.39,0,0,0,.17-.36,1.89,1.89,0,0,0-.07-.39c-.09-.35-.2-.68-.3-1l-1.69.1c-.09.35-.18.71-.25,1.07,0,.07,0,.2,0,.38a.38.38,0,0,0,.2.34.92.92,0,0,0,.42.05v.26l-1.5.15V131a.36.36,0,0,0,.26-.14,1.27,1.27,0,0,0,.18-.31,1.22,1.22,0,0,0,.1-.33c0-.07.08-.24.14-.5.26-1,.53-2,.8-3s.56-2,.86-3h.21c.28,1,.59,1.92.88,2.88l.87,2.85c0,.13.06.27.1.42a3.44,3.44,0,0,0,.15.4,1.61,1.61,0,0,0,.21.32.44.44,0,0,0,.28.12,2.35,2.35,0,0,0,0,.26Zm-12.71-9.39c1.13-1.16.36-9-1.81-12.29,9.48,7,30.3,7,39.7-.09-2.23,3.22-3,11.2-1.88,12.38A173.36,173.36,0,0,0,64.28,121.62ZM90.42,130a1.07,1.07,0,0,1-.53.68,2,2,0,0,1-1.18.2l-.61,0-1.66-.05-.75,0a2.17,2.17,0,0,0,0-.26,1.05,1.05,0,0,0,.42-.05c.11,0,.17-.14.18-.32s0-.24,0-.38c-.1-.33-.19-.66-.26-1-.56,0-1.13,0-1.69,0-.12.32-.22.65-.32,1a3.16,3.16,0,0,1-.06.35.46.46,0,0,0,.2.35,1.29,1.29,0,0,0,.43.07v.26H83v-.26a.36.36,0,0,0,.26-.11.74.74,0,0,0,.19-.3,1.5,1.5,0,0,0,.12-.27c0-.09.08-.24.17-.48.26-.78.53-1.58.81-2.37s.57-1.56.83-2.35v0a1,1,0,0,0-.18-.31.59.59,0,0,0-.28-.15,1.7,1.7,0,0,0-.37-.08,1.21,1.21,0,0,0-.08-.25c.4,0,.78,0,1.17.05,0-.05,0-.1.06-.17l.2,0a.75.75,0,0,1,0,.16l1,0a3.34,3.34,0,0,1,1,.19,2.13,2.13,0,0,1,.88.54,2,2,0,0,1,.54,1,1.16,1.16,0,0,1-.82,1.54h0a2.64,2.64,0,0,1,.86.41,2.32,2.32,0,0,1,.62.63,2.43,2.43,0,0,1,.35.88A2,2,0,0,1,90.42,130Zm7.43,1.25a1.86,1.86,0,0,1-1.37.43,2.48,2.48,0,0,1-1.08-.37,2.92,2.92,0,0,1-.84-.84,3.43,3.43,0,0,1-.46-1.21,4.44,4.44,0,0,1,0-1.46c0-.12,0-.25.06-.42a4.85,4.85,0,0,1,.64-1.65,3.44,3.44,0,0,1,1-1.13,2.2,2.2,0,0,1,2.57.1,2.53,2.53,0,0,1,.87,1.16,4,4,0,0,1,.24,1.76c0,.15,0,.34-.07.56a6.48,6.48,0,0,1-.58,1.74A3.82,3.82,0,0,1,97.85,131.25Zm5.74-1.19c.14.5.29,1,.47,1.51a1.72,1.72,0,0,0,.19.42.23.23,0,0,0,.2.1c0,.11,0,.19,0,.28L103,132.2c-.23-.61-.45-1.2-.61-1.8s-.31-1.18-.46-1.77h-.21c-.06.37-.13.73-.19,1.11s-.12.75-.17,1.13a1.22,1.22,0,0,0,0,.53.43.43,0,0,0,.17.25,1.87,1.87,0,0,0,.39.15,2.44,2.44,0,0,0,0,.27c-.81-.09-1.64-.18-2.46-.29v-.25a1,1,0,0,0,.41-.08c.09,0,.15-.12.19-.26a1.77,1.77,0,0,0,.12-.59c.1-.79.24-1.58.38-2.37s.27-1.58.37-2.37a1.3,1.3,0,0,0,0-.52.51.51,0,0,0-.17-.34,1.08,1.08,0,0,0-.41-.16c0-.08,0-.16,0-.25.85,0,1.69.12,2.52.16a2.48,2.48,0,0,1,1.31.4,1.52,1.52,0,0,1,.55.82,2.36,2.36,0,0,1,0,.92,2.81,2.81,0,0,1-.19.59,2.1,2.1,0,0,1-.49.66,1.76,1.76,0,0,1-.86.44C103.31,129.07,103.45,129.56,103.59,130.06Zm4.24-4.43a1.33,1.33,0,0,0-.17.57c-.14.85-.31,1.71-.51,2.55s-.4,1.71-.54,2.57a2.18,2.18,0,0,0,0,.65.44.44,0,0,0,.17.3,1,1,0,0,0,.45.15c0,.11,0,.2,0,.28-.85-.09-1.69-.2-2.54-.3a2.72,2.72,0,0,1,0-.28.83.83,0,0,0,.42-.08.45.45,0,0,0,.23-.22,5,5,0,0,0,.11-.5c.13-.87.33-1.74.53-2.63s.37-1.75.49-2.61a1.25,1.25,0,0,0,0-.48.37.37,0,0,0-.18-.26,1,1,0,0,0-.45-.13,2.61,2.61,0,0,0,0-.28l2.69.17v.28l-.43.05C108,125.44,107.9,125.52,107.83,125.63Zm5,4.85a1.35,1.35,0,0,0-.31.71c-.12.55-.22,1.08-.29,1.61a3,3,0,0,1-1.92.5,3.13,3.13,0,0,1-1-.31,1.82,1.82,0,0,1-.61-.57,2.92,2.92,0,0,1-.45-.92,4.31,4.31,0,0,1-.15-1.17,5.46,5.46,0,0,1,.16-1.31,9.46,9.46,0,0,1,.3-.91,7.76,7.76,0,0,1,.59-1.23,5.58,5.58,0,0,1,.73-1,3,3,0,0,1,.81-.6,1.88,1.88,0,0,1,.94-.18,2.09,2.09,0,0,1,.81.27,2.36,2.36,0,0,1,.38.22.86.86,0,0,0,.3.16h.1a1,1,0,0,0,.28-.49h.2c0,.46-.07.91-.13,1.36s-.19.91-.31,1.36a.58.58,0,0,1-.18,0,4.83,4.83,0,0,0-.2-1.27,2.35,2.35,0,0,0-.53-.87,1,1,0,0,0-.65-.32,1.2,1.2,0,0,0-1,.64,7,7,0,0,0-.45.88c-.13.37-.29.81-.43,1.32,0,.14-.12.36-.2.66a11.23,11.23,0,0,0-.27,1.49,3.81,3.81,0,0,0,0,1.1,3.08,3.08,0,0,0,.18.64,1.13,1.13,0,0,0,.32.43.91.91,0,0,0,.52.25c.49.07.74-.18.82-.73.13-.82.26-1.32.29-1.49a1,1,0,0,0,0-.34.47.47,0,0,0-.16-.18l-.23-.09-.2,0a1.57,1.57,0,0,0,.06-.28l2.55.21c0,.09,0,.2-.08.3l-.12,0h-.14a.51.51,0,0,0-.14,0A.56.56,0,0,0,112.79,130.48ZM115,132.9a.44.44,0,0,0,.16.3,1,1,0,0,0,.44.16c0,.09,0,.19,0,.29l-2.54-.25a2.64,2.64,0,0,0,0-.29,1.08,1.08,0,0,0,.44-.08.48.48,0,0,0,.22-.26,4.13,4.13,0,0,0,.12-.5c.2-.94.46-1.87.72-2.8s.51-1.84.71-2.78a1.14,1.14,0,0,0,0-.49.37.37,0,0,0-.16-.28,1.13,1.13,0,0,0-.45-.14c0-.09,0-.19,0-.27l2.66.15v.28l-.44.06c-.08,0-.16.1-.25.22a2.37,2.37,0,0,0-.17.6c-.19.91-.44,1.8-.7,2.69s-.52,1.8-.72,2.69A1.89,1.89,0,0,0,115,132.9Zm5.22,1.22h-.2a17.22,17.22,0,0,1-1-3.27c-.21-1.1-.41-2.22-.69-3.31h0c-.21.81-.46,1.63-.71,2.45s-.49,1.65-.68,2.47a1,1,0,0,0,.06.75.76.76,0,0,0,.49.3,1.55,1.55,0,0,1,0,.29c-.54,0-1.1-.06-1.64-.11a1.62,1.62,0,0,0,0-.3H116l.12,0,.14,0a.45.45,0,0,0,.12-.12.76.76,0,0,0,.16-.31c0-.12.08-.34.14-.62.23-.91.5-1.81.77-2.71s.52-1.79.74-2.69a5.92,5.92,0,0,0-.29-.63c-.08-.14-.16-.22-.25-.23s0-.21,0-.31l1.6.08a16.86,16.86,0,0,1,.83,2.62c.2.87.31,1.75.48,2.61.2-.62.42-1.22.64-1.84s.35-1.22.5-1.81a1.34,1.34,0,0,0,0-.84.56.56,0,0,0-.48-.33c0-.09,0-.2,0-.31l1.63.08c0,.1,0,.2,0,.3l-.24.06a.46.46,0,0,0-.28.17,2.29,2.29,0,0,0-.21.62c-.28,1.17-.69,2.34-1.1,3.52A18.79,18.79,0,0,0,120.25,134.12Zm7.16-6.94c-.08.36-.2.72-.3,1.06a.9.9,0,0,1-.22,0c.18-.92,0-1.49-.44-1.68a2.54,2.54,0,0,0-.83-.17,1,1,0,0,0-.46.1.66.66,0,0,0-.23.46,9,9,0,0,1-.35,1.33c-.14.45-.31.89-.47,1.32a1.5,1.5,0,0,0,.72-.17,1.78,1.78,0,0,0,.57-.51,5.35,5.35,0,0,0,.54-1h.21c-.21.62-.43,1.25-.68,1.89s-.46,1.24-.68,1.88h-.21a4.13,4.13,0,0,0,.2-1,.65.65,0,0,0-.15-.5.51.51,0,0,0-.33-.15,1.44,1.44,0,0,0-.32,0c-.18.48-.36,1-.51,1.43s-.29.95-.4,1.43a.49.49,0,0,0,.08.45c.08.07.26.08.54.05.94-.13,1.72-1,2.46-2.28l.24-.06a9,9,0,0,0-.51,1.15,6.08,6.08,0,0,0-.31,1.13,23.11,23.11,0,0,1-4.47.6c0-.1,0-.2,0-.3a1,1,0,0,0,.54-.21,1.34,1.34,0,0,0,.26-.65,28.31,28.31,0,0,1,.84-2.71c.31-.91.63-1.81.86-2.71a1.85,1.85,0,0,0,.07-.61.43.43,0,0,0-.14-.33.68.68,0,0,0-.44-.14c0-.1,0-.2,0-.31,1.46.07,2.93.12,4.39.16A6.63,6.63,0,0,1,127.41,127.18ZM128,121a10.41,10.41,0,0,1-.18-2.48c2,.86,2.23,1.74,2.18,2.33-.12,1.84-2,3-6.82,3-4.22.05-10.22-1.26-19.65-1.87-1.48-.27-2.07-.71-2-1.4.08-1.81,5.79-3.15,9.84-3C115.65,117.81,122.9,118.79,128,121Zm-.68-14.48c-3.09-.24-6.47.65-9.24.52-2.59-.12-4.46-.91-4.34-1.26.12-.51,1.87-.39,2.12.58a1.19,1.19,0,0,0,.26-.67c0-.56-.65-.87-1.53-.91-1.36,0-2.71.33-4.12,0s-3.59-1.51-3.58-2.84a.66.66,0,0,1,.82-.72,2.71,2.71,0,0,0,2,1.63c-1.6-1.45-1.69-2.8-.66-3.14a2.47,2.47,0,0,0,2.2,1.47c-1.65-1.32-1.8-2.76-.76-3.52a2.86,2.86,0,0,0,1.74,1.9c-.76,2.09.86,2.94,2.22,3a6.45,6.45,0,0,0,5.23-1.88c3.16.79,4,.22,5,0-6.64.25-6.56-2.79-9.44-2.71a3.81,3.81,0,0,0-2.62,1.08c-.69-.74-.41-1.47.27-2.08.92-.81,2-.38,3.3-.54-1.35-.29-3.33-1.17-4.53,1.07a2.57,2.57,0,0,1,1-3.51c1.42-.85,4-.45,5.45,0,4.77,1.42,5.91-1.1,5.91-2.51a3.13,3.13,0,0,0-2.11-3c1.71-.63,3.31.33,2.91,3a1.46,1.46,0,0,0,1.7-.55c1.11,1.12,0,1.83-.87,2.5a2.66,2.66,0,0,1,1.36,2.64c-.14.89-.58,1.89-2.63,2.32a2.24,2.24,0,0,1,.89,2.09,8.05,8.05,0,0,1,1.22-.3,2.35,2.35,0,0,0-.82-1.77c2.85-.73,3.18-3.36,1.6-4.86a2.25,2.25,0,0,0-.82-3.93c.19,1-.43,1.36-1.06,1.33a3.29,3.29,0,0,0-1.44-3.33c-3.76-8.26-14.25-11.37-11.78-18.41l-.33-.11c-2.81,6.3,5.68,10,8.52,14.93-5.5-4.86-11.8-9.58-11-14,.36-2,1.76-3.9,5-5.56-1.29-.51-2.77-1.34-2.72-2.87s2.67-3.06,3.88-3.67c3-1.46,3.78-2.77,3.75-3.93A2.78,2.78,0,0,0,117.69,52a2.2,2.2,0,0,1,1.88.5,3.58,3.58,0,0,1,.68,2.4c.76-.69.82-.93,1.45-1.43.23,1.18.39,2.3-.09,3-1.16,1.83-4.4,2.58-5.7,3.21s-.93,1.45-.67,1.72,1,1,2-.14c.8-.93,2.86-4.06,5.24-2.24-.73.47-1.2,1.19-1,1.82a1.35,1.35,0,0,1-.24,1.55c-.71.79-2.78.7-3.6,1.23-1.18.75-1.44,1.46-1.15,1.94.38.66,1.33.66,2.2.09,1.19-.78,1.86-2.58,3.15-2.49,1.07,0,1.74,2.2,2.76.81a3.28,3.28,0,0,1-3,2.71c-1.74.07-3.08.37-2.39,1.53a1.22,1.22,0,0,0,1.19.53c1.27-.16,2.51-2,4.85-2.42,1.38-.23,3.19.08,3.89.86a2,2,0,0,1,.2,2.7c1.06,1.89.62,4.33-2.2,4.28,3.9-2.31,1.13-7.2-4.93-3.94-3.15,1.69-6.23,1.25-6.15-1.69a2.72,2.72,0,0,0-2.22,2c-.68,3.15,8.58,7.55,12.08,10.57,5.65,4.88,6.76,8.43,6.88,13.23a12.48,12.48,0,0,1-3.86,9.37c-.18,0-.36.14-.54.19.7-1.11-.22-1.6.35-2.44-4.16-1.62-5.9,3.33-9.09,2.91,3.62,1.75,4.69-3.31,8.19-2.75-.18,1,.55,1.5-.76,2.82,5.15-1,6.74,2.32,6.68,3.84a3.52,3.52,0,0,1-2.55,3,4.18,4.18,0,0,0,1-2.31C132.22,107.37,130.35,106.73,127.27,106.48Zm-12.35-4.93c-1,.16-1.78-.38-1.78-1.2a2.05,2.05,0,0,1,1.78-1.8,1.38,1.38,0,0,1,1.79,1.2A2.05,2.05,0,0,1,114.92,101.55Zm2.4-1.86a7.88,7.88,0,0,0,1.15.6,4,4,0,0,1-3.42,1.66A2.68,2.68,0,0,0,117.32,99.69Zm.31-40.12a3,3,0,0,0-.51.72.08.08,0,0,0-.08.09c-.17.07-.3.33-.42.42l-.09,0h-.38l0,0v-.35s.09-.07.09-.12a.53.53,0,0,0,.21-.21h.08C116.49,59.91,117.47,59.61,117.63,59.57Zm2,4.1-.17.12v.08l0,.05a.09.09,0,0,0-.08.07c-.09,0,0,.05-.09.05,0,.18-.71.76-.85.84-.33.22-.45.35-.83.35l0,0,0,0s0-.17,0-.26a.72.72,0,0,0,.2-.3s.17-.11.17-.16c.25,0,.76-.43,1-.46a1.08,1.08,0,0,0,.38,0A3.94,3.94,0,0,0,119.62,63.67Zm2.19,3.62v0l0,0s-.17.09-.17.12-.18.09-.18.13c-.33.09-.71.59-1.13.43,0,0-.13-.12-.17-.12v-.22s.13-.13.13-.17C120.66,67.55,121.35,67.33,121.81,67.29Zm-9.15.76.18.1.38-.35-.13-.08Zm.81-.58.08.06c.17-.14.35-.27.53-.4Zm-1.55,1.39.27.14a5,5,0,0,1,.33-.47l-.24-.12A2.63,2.63,0,0,0,111.92,68.86Zm-8.78,56.37a.94.94,0,0,0-.54-.15.3.3,0,0,0-.31.13.48.48,0,0,0-.1.28c0,.45-.11.91-.19,1.39s-.16.92-.25,1.38a1.65,1.65,0,0,0,1.12-.2,2.05,2.05,0,0,0,.55-1.24,3.67,3.67,0,0,0,0-1A.93.93,0,0,0,103.14,125.23ZM86.78,63.34l-1.19-.16.15-2.29a25.92,25.92,0,0,0-2.87-.22v2.27H81.62V60.67a26.69,26.69,0,0,0-2.87.22l.16,2.29-1.18.16-.33-2.23a19.25,19.25,0,0,0-3.06.81l1.57,8.27-1,.31.39,1.65.87-.32.12.6-.87.27.4,1.68a19.93,19.93,0,0,0,6.45,1,18.87,18.87,0,0,0,6.41-1l.36-1.68-.86-.27.11-.6.86.32.41-1.65-1-.31,1.56-8.27a18.84,18.84,0,0,0-3-.81Zm-7.13.45-.15-2.28h.37l.08,0h.44l.09,0h.44v2.25h2.67V61.4H84l.08,0h.44l.08,0H85l-.15,2.28,1.67.23-.11.8c-.5-.09-1-.17-1.56-.24v.56a18.65,18.65,0,0,1,2.81.53l-.17,1.15a19.36,19.36,0,0,0-2.64-.45v.56c.36,0,.73.09,1.09.15l-.14,1-1-.13v.58A20.91,20.91,0,0,1,87,68.9l-.19.92a18,18,0,0,0-2.8-.45v-2.8a1.69,1.69,0,0,0-1.66-1.81h-.08a1.75,1.75,0,0,0-1.74,1.81v2.78a16.08,16.08,0,0,0-2.34.33l-.1-.92c.55-.09,1.12-.18,1.69-.23V68c-.21,0-.42,0-.64.07l-.1-1c.25-.05.5-.07.74-.1v-.57c-.69.08-1.37.18-2,.3l-.19-1.15a21.86,21.86,0,0,1,2.22-.37v-.56q-.51.06-1,.15l-.08-.79Zm6.76,4.41.17-1c.62.12,1.21.26,1.78.43l-.19,1A16.7,16.7,0,0,0,86.41,68.2Zm1.66,1-.19,1L87.43,70l.23-.91A2.73,2.73,0,0,1,88.07,69.16Zm-11.74-.55-.19-1a21,21,0,0,1,2.27-.52l.16,1A18,18,0,0,0,76.33,68.61Zm1.28,1.21a9.75,9.75,0,0,0-1,.3l-.18-1c.32-.09.67-.18,1-.26Zm-2.08-5.44.65-.19-.1-.54c-.23.05-.44.13-.66.2l-.28-1.45,0,0,.08,0,.08,0,.09,0,.09,0,.1,0,.08,0,.1,0,.08,0,.1,0,.1,0,.09,0,.08,0,.1,0,.1,0,.09,0,.1,0,.1,0,.06,0,.32,2.19L78,64l.13.82a17.53,17.53,0,0,0-2.45.64Zm.3,1.59c.35-.12.72-.22,1.09-.33l.25,1.13c-.39.1-.77.19-1.13.31Zm11.92,8-.17,0-.18.06-.18,0-.19,0-.17,0-.2,0-.17,0-.19,0-.19,0-.18,0-.2,0-.19,0-.19,0-.18,0-.2,0-.2,0-.19,0h-.21l-.19,0H84l-.21,0h-3l-.2,0-.21,0h-.2l-.2,0-.2,0-.19,0-.2,0-.19,0-.21,0-.18,0-.19,0-.19,0-.19,0-.19,0-.19,0-.18,0-.19-.05-.18,0-.18,0L77,74l-.18,0h0a17.2,17.2,0,0,1,11.07,0Zm.48-.74-.06.27a14.92,14.92,0,0,0-5.92-1.07,15.12,15.12,0,0,0-5.9,1.06l-.06-.26a.64.64,0,0,1,.19-.08l.64-.2v0a16.4,16.4,0,0,1,5.14-.75,16.2,16.2,0,0,1,5.13.75v0l.64.2ZM76.86,71.62a19.44,19.44,0,0,1,10.73,0l-.11.69a17.88,17.88,0,0,0-10.48,0ZM88.74,71l-.17.46a15.6,15.6,0,0,0-6.32-1.13,17.84,17.84,0,0,0-5.5.79h0l-.21.09-.65.23-.1-.45.38-.13h0l.13,0,.44-.13v0a19.06,19.06,0,0,1,11.06,0v0l.45.13.15.08,0,0Zm-.28-3.89L88.09,67l.21-1.11c.13,0,.25.08.37.12Zm-1.08-3,.31-2.19.06,0,.09,0,.1,0L88,62l.1,0,.1,0,.09,0,.1,0,.09,0,.09,0,.09,0,.09,0,.1,0,.08,0,.09,0,.09,0,.09,0,.1,0,0,0-.28,1.45-.48-.16-.12.54a4.74,4.74,0,0,0,.5.15l-.21,1.07A17.11,17.11,0,0,0,87,65l.15-.85ZM51.11,67.47l-.61-.34.52.4Zm13,58.21a1.1,1.1,0,0,0-.36-.63.75.75,0,0,0-.51-.1c-.24,0-.36.17-.34.45,0,.52.08,1,.13,1.56s.1,1,.16,1.57a2.1,2.1,0,0,0,.56-.13.87.87,0,0,0,.31-.24,2.1,2.1,0,0,0,.21-1.46A7.33,7.33,0,0,0,64.11,125.68Zm-10.36.85a1.24,1.24,0,0,0-.44-.63,1,1,0,0,0-.56-.08.29.29,0,0,0-.27.19.71.71,0,0,0-.07.32c.07.51.11,1,.2,1.53s.2,1,.29,1.57c.53-.05.85-.18,1-.41a2.38,2.38,0,0,0,.08-1.43A6.05,6.05,0,0,0,53.75,126.53ZM51.91,68.05a3.74,3.74,0,0,0-.43-.33l-.13.08.39.35Zm.74.81a2.58,2.58,0,0,0-.35-.45l-.25.12a2.86,2.86,0,0,1,.33.47Zm34.13,12-1.19-.17.15-2.28a25.86,25.86,0,0,0-2.87-.23v2.28H81.62V78.16a26.67,26.67,0,0,0-2.87.23l.16,2.28-1.18.17-.33-2.25a20.36,20.36,0,0,0-3.06.83l1.57,8.25-1,.32.39,1.66.87-.32.12.59-.87.28.4,1.66a19.92,19.92,0,0,0,6.45,1,18.39,18.39,0,0,0,6.41-1l.36-1.66-.86-.28.11-.59.86.32L89.58,88l-1-.32,1.56-8.25a19.9,19.9,0,0,0-3-.83Zm-7.13.45L79.5,79h.11l.08,0H80l.09,0h.88v2.23h2.67V78.9h.87l.09,0h.26l.08,0H85l-.15,2.29,1.67.21-.11.83a15.38,15.38,0,0,0-1.56-.25v.55a20,20,0,0,1,2.81.53l-.17,1.15a17.93,17.93,0,0,0-2.64-.46v.57c.36,0,.73.09,1.09.15l-.14,1c-.32,0-.63-.1-1-.12V86c.75.09,1.47.22,2.17.36l-.19.92a19.28,19.28,0,0,0-2.8-.45V84.05a1.69,1.69,0,0,0-1.66-1.8h-.08a1.75,1.75,0,0,0-1.74,1.8v2.78a19.32,19.32,0,0,0-2.34.34l-.1-.92c.55-.08,1.12-.17,1.69-.23v-.57c-.21,0-.42,0-.64.08l-.1-1,.74-.1v-.57a19.08,19.08,0,0,0-2,.31L77.58,83a21.86,21.86,0,0,1,2.22-.37v-.55l-1,.14-.08-.8Zm6.76,4.41.17-1a16,16,0,0,1,1.78.41l-.19,1A16.68,16.68,0,0,0,86.41,85.7Zm1.66,1-.19,1c-.13-.06-.3-.1-.45-.15l.23-.94ZM76.33,86.1l-.19-1a18.89,18.89,0,0,1,2.27-.51l.16,1A20,20,0,0,0,76.33,86.1Zm1.28,1.21a7.7,7.7,0,0,0-1,.31l-.18-1c.32-.09.67-.18,1-.26Zm-2.08-5.43.65-.19-.1-.56-.66.21-.28-1.45,0,0,.08,0,.08,0,.09,0,.09,0,.1,0,.08,0,.1,0,.08,0,.1,0,.1,0,.09,0,.08,0,.1,0h.1l.09,0,.1,0,.1,0h.06l.32,2.18.91-.13.13.82a19.06,19.06,0,0,0-2.45.62Zm.3,1.58,1.09-.32.25,1.12c-.39.1-.77.2-1.13.31Zm11.92,8-.17.06-.18.05-.18,0-.19,0-.17.05-.2,0-.17,0-.19,0-.19,0-.18,0-.2,0-.19,0-.19,0-.18,0L85,92l-.2,0-.19,0-.21,0h-.19l-.2,0h-.41l-.22,0H81.22l-.21,0h-.4l-.21,0h-.2l-.2,0-.2,0h-.19l-.2,0-.19,0-.21,0-.18,0-.19,0-.19,0-.19,0-.19,0-.19,0-.18,0-.19,0-.18,0-.18,0-.19,0-.18,0,0,0a15.51,15.51,0,0,1,5.52-.89,16.11,16.11,0,0,1,5.55.89Zm.48-.73-.06.26a14.74,14.74,0,0,0-5.92-1.07A14.93,14.93,0,0,0,76.35,91l-.06-.25.19-.1.64-.19v0a16.08,16.08,0,0,1,5.14-.77,15.88,15.88,0,0,1,5.13.77v0l.64.19ZM76.86,89.11a19.56,19.56,0,0,1,10.73,0l-.11.68a17.67,17.67,0,0,0-10.48,0Zm11.88-.65-.17.47a15.58,15.58,0,0,0-6.32-1.14,17.52,17.52,0,0,0-5.5.8h0l-.21.09-.65.23-.1-.45.38-.12h0l.13,0,.44-.14v0a19.51,19.51,0,0,1,11.06,0v0l.45.14a1,1,0,0,1,.15.07l0,0Zm-.28-3.89c-.13,0-.24-.07-.37-.11l.21-1.11.37.11Zm-1.08-2.95.31-2.18h.06l.09,0,.1,0,.09,0h.1l.1,0,.09,0,.1,0,.09,0,.09,0,.09,0,.09,0,.1,0,.08,0,.09,0,.09,0,.09,0,.1,0,0,0-.28,1.45-.48-.16-.12.54a4.83,4.83,0,0,0,.5.16l-.21,1.05A17.13,17.13,0,0,0,87,82.45l.15-.86ZM45.21,95.42a5,5,0,0,1-3,.93,4.49,4.49,0,0,1-3.7-1.62A3.64,3.64,0,0,0,42,96.88,3.93,3.93,0,0,0,45.21,95.42Zm7.48,7.87c.38,0,.85-.32,1.14,0-.1-.59-1.75-1.3-1.82-.49C52,103.18,52.32,103.35,52.69,103.29ZM76.33,125.9c-.12.43-.23.88-.35,1.32s-.22.89-.34,1.34c.49,0,1-.06,1.48-.07-.14-.44-.28-.87-.39-1.3S76.47,126.33,76.33,125.9Zm-3.81.71a5.4,5.4,0,0,0-.28-1.12,2.13,2.13,0,0,0-.48-.84.94.94,0,0,0-.75-.29.5.5,0,0,0-.34.12.36.36,0,0,0-.11.27c0,1,.09,2,.14,3l.12,3c0,.32.17.48.49.43a1.16,1.16,0,0,0,.64-.3,1.75,1.75,0,0,0,.45-.77,3.67,3.67,0,0,0,.2-1c0-.39,0-.83,0-1.29A11.3,11.3,0,0,0,72.52,126.61Z" style="fill:#fff"/><path d="M334,59.65a25.35,25.35,0,0,0-5.84-8.38,27.25,27.25,0,0,0-8.78-5.58,30.26,30.26,0,0,0-21.87,0,27.47,27.47,0,0,0-8.82,5.66,26.29,26.29,0,0,0-5.87,8.41,25.21,25.21,0,0,0-2.15,10.35v.13l-2.37-5.68a39.14,39.14,0,0,1-18.32-6.65c-3.17-2-5.87-3.57-10.05-4l-5.16,12.34a25.42,25.42,0,0,0-7.69-15,27.25,27.25,0,0,0-8.78-5.58,30.26,30.26,0,0,0-21.87,0,27.47,27.47,0,0,0-8.82,5.66,26.37,26.37,0,0,0-5.36,7.39v-14H164.45V59h11.21V76.31a6.54,6.54,0,0,1-1.3,4.27,4.19,4.19,0,0,1-3.41,1.6A5.84,5.84,0,0,1,167.32,81a13.92,13.92,0,0,1-3-3.27l-11.11,9.36a21.2,21.2,0,0,0,3.16,3.81,19.23,19.23,0,0,0,4.1,3,20.87,20.87,0,0,0,5.22,2,29,29,0,0,0,6.53.69,22.78,22.78,0,0,0,8.32-1.46,18.25,18.25,0,0,0,6.34-4A16.77,16.77,0,0,0,191,84.6a22.48,22.48,0,0,0,.86-3.61,25.43,25.43,0,0,0,5.66,8,27.2,27.2,0,0,0,8.77,5.58,28.92,28.92,0,0,0,10.93,2,28.44,28.44,0,0,0,17.15-5.55L232,96.62h18.14l2.61-6.82h17.78l2.68,6.82h18.43l-3.27-7.82a1.8,1.8,0,0,0,.19.2,27.14,27.14,0,0,0,8.78,5.58,28.83,28.83,0,0,0,10.92,2,28.51,28.51,0,0,0,11-2.08,27.45,27.45,0,0,0,8.82-5.65,26.34,26.34,0,0,0,5.88-8.43,25.26,25.26,0,0,0,2.14-10.32V70A25.67,25.67,0,0,0,334,59.65ZM227.87,70.28a12.46,12.46,0,0,1-.74,4.28,10.52,10.52,0,0,1-5.43,6.1,10.2,10.2,0,0,1-12.12-2.55,11.67,11.67,0,0,1-2.14-3.65,12.44,12.44,0,0,1-.76-4.32V70a12.68,12.68,0,0,1,.72-4.27,10.72,10.72,0,0,1,2.11-3.6,10.35,10.35,0,0,1,3.33-2.5A10.23,10.23,0,0,1,225,62.16a11.72,11.72,0,0,1,2.14,3.66,12.33,12.33,0,0,1,.77,4.32Zm29.18,7.47,4.65-12.33,4.65,12.33ZM319,70.28a12.7,12.7,0,0,1-.73,4.28,11.07,11.07,0,0,1-2.1,3.6,10.77,10.77,0,0,1-3.35,2.5,10,10,0,0,1-4.35.94,9.93,9.93,0,0,1-7.76-3.49,11.46,11.46,0,0,1-2.13-3.65,12.22,12.22,0,0,1-.77-4.32V70a12.68,12.68,0,0,1,.72-4.27,10.72,10.72,0,0,1,2.11-3.6,10.24,10.24,0,0,1,3.33-2.5A10.23,10.23,0,0,1,316,62.16a11.53,11.53,0,0,1,2.14,3.66,12.33,12.33,0,0,1,.77,4.32Zm-41.66-8-7-16.81H253.42l-2.64,6.33c4.36.6,7.32,2.37,10.35,4.27A36.15,36.15,0,0,0,277.29,62.28Zm32.61,38.57-8.37,20a17,17,0,0,0,.2-2.49v-.09a17.07,17.07,0,0,0-1.39-6.84,16.74,16.74,0,0,0-3.87-5.53,18,18,0,0,0-5.8-3.7,19.22,19.22,0,0,0-7.21-1.34,19,19,0,0,0-7.25,1.37,18,18,0,0,0-5.83,3.74,17.43,17.43,0,0,0-3.89,5.56,16.47,16.47,0,0,0-1.38,6.28c-.32-.26-.64-.52-1-.76a17.49,17.49,0,0,0-4.54-2.09,47.56,47.56,0,0,0-5.85-1.39c-.89-.16-1.63-.32-2.21-.48a6.76,6.76,0,0,1-1.36-.51,1.81,1.81,0,0,1-.7-.54,1.13,1.13,0,0,1-.19-.63v-.09a1.15,1.15,0,0,1,.6-1,3.43,3.43,0,0,1,1.84-.39,17.57,17.57,0,0,1,5,.8,16.73,16.73,0,0,1,5.06,2.51l5.46-7.57a20.37,20.37,0,0,0-6.59-3.46,28.61,28.61,0,0,0-8.56-1.15,19.63,19.63,0,0,0-6.11.87,12.88,12.88,0,0,0-4.47,2.39,11,11,0,0,0-1.26,1.3,20.56,20.56,0,0,0-6.53-3.41,28.61,28.61,0,0,0-8.56-1.15,19.63,19.63,0,0,0-6.11.87,12.88,12.88,0,0,0-4.47,2.39,10.26,10.26,0,0,0-2.73,3.61,2.68,2.68,0,0,0-.12.3v-5.92H183.1v7.84a10.42,10.42,0,0,0-3.54-4.87,13.66,13.66,0,0,0-4.72-2.22,23.37,23.37,0,0,0-6.12-.75H153.61v33.58h11.23v-9.12h3.64a22.74,22.74,0,0,0,6.21-.79,13.52,13.52,0,0,0,4.82-2.38,10.59,10.59,0,0,0,3.12-3.9,11,11,0,0,0,.47-1.17v17.36H212v-3.59a22.55,22.55,0,0,0,4.77,2.17,31.45,31.45,0,0,0,9.57,1.42,22.07,22.07,0,0,0,6.12-.8,14,14,0,0,0,4.67-2.25,11.62,11.62,0,0,0,1.1-1,22.29,22.29,0,0,0,5.47,2.61,31.45,31.45,0,0,0,9.57,1.42,22.07,22.07,0,0,0,6.12-.8,14.15,14.15,0,0,0,4.68-2.25,9.73,9.73,0,0,0,3.62-5.31,16.7,16.7,0,0,0,2.67,3.32,18.07,18.07,0,0,0,5.81,3.69,20,20,0,0,0,14.45,0,18.35,18.35,0,0,0,5.84-3.75,16.5,16.5,0,0,0,1.83-2.09l-3,7.2h12.41l1.79-4.67h12.16l1.84,4.67h12.62l-14.65-35Zm-137.24,14.2a3.14,3.14,0,0,1-1.32,2.75,5.88,5.88,0,0,1-3.49.94h-3v-7.48h3.06a5.77,5.77,0,0,1,3.51.93,3.26,3.26,0,0,1,1.25,2.76Zm57.06,10.5a1.19,1.19,0,0,1-.67,1,4.79,4.79,0,0,1-2.21.39,20.62,20.62,0,0,1-6-.91,18.14,18.14,0,0,1-5.76-3L212,126.77v-.12H194.12V123h16.41v-8.1H194.12V111.5H211c0,.28,0,.57,0,.86v.09a8.14,8.14,0,0,0,1.15,4.49,9.58,9.58,0,0,0,3.1,3,18.57,18.57,0,0,0,4.5,2c1.71.52,3.51,1,5.4,1.35a16.87,16.87,0,0,1,3.67,1c.65.32,1,.71,1,1.2Zm26.93,0a1.14,1.14,0,0,1-.68,1,4.71,4.71,0,0,1-2.2.39,20.67,20.67,0,0,1-6-.91,18,18,0,0,1-5.75-3l-.9,1.07a8.4,8.4,0,0,0-1-4,9.21,9.21,0,0,0-2.93-3,17.42,17.42,0,0,0-4.53-2.09,47.3,47.3,0,0,0-5.86-1.39c-.89-.16-1.62-.32-2.2-.48a7.13,7.13,0,0,1-1.37-.51,1.84,1.84,0,0,1-.69-.54,1.13,1.13,0,0,1-.19-.63v-.09a1.15,1.15,0,0,1,.6-1,3.42,3.42,0,0,1,1.85-.39,17.61,17.61,0,0,1,5,.8,16.57,16.57,0,0,1,5.05,2.51l4.2-5.8c-.09.16-.18.32-.26.49a10.48,10.48,0,0,0-.94,4.45v.09a8.14,8.14,0,0,0,1.16,4.49,9.44,9.44,0,0,0,3.09,3,18.65,18.65,0,0,0,4.51,2c1.71.52,3.5,1,5.4,1.35a17.23,17.23,0,0,1,3.67,1c.65.32,1,.71,1,1.2Zm33.75-7.1a8.05,8.05,0,0,1-.48,2.83,7.15,7.15,0,0,1-1.38,2.38,7,7,0,0,1-2.21,1.65,6.76,6.76,0,0,1-8-1.68,7.59,7.59,0,0,1-1.41-2.42,8.09,8.09,0,0,1-.51-2.86v-.09a8.27,8.27,0,0,1,.48-2.82,7.22,7.22,0,0,1,1.39-2.39,6.89,6.89,0,0,1,2.21-1.65,6.61,6.61,0,0,1,2.88-.62,6.73,6.73,0,0,1,2.92.62,6.83,6.83,0,0,1,2.21,1.68,8.12,8.12,0,0,1,1.42,2.42,8.33,8.33,0,0,1,.49,2.85Zm22,4.5,3.18-8.45,3.18,8.45Z" style="fill:#fff"/><path d="M168.65,28.77h-3.16v7.36h2V34h1c1.83,0,3.16-.91,3.16-2.64v0C171.7,29.72,170.51,28.77,168.65,28.77Zm1,2.7c0,.58-.45,1-1.17,1h-1V30.48h1c.73,0,1.18.34,1.18,1Zm15.41-.17v0a2.28,2.28,0,0,0-.65-1.71,3.19,3.19,0,0,0-2.4-.8h-3.47v7.36h2V33.9h.89L183,36.13h2.35l-1.75-2.57A2.33,2.33,0,0,0,185.08,31.3Zm-2.05.13c0,.53-.4.87-1.09.87H180.6V30.53h1.33c.68,0,1.1.3,1.1.88Zm11.09,1.8h3.53V31.62h-3.53V30.5H198V28.77H192.1v7.36h6V34.39h-4Zm11,2.9h2V33.5h3.48V31.81h-3.48V30.56H211V28.77H205.1Zm14.82-2.9h3.53V31.62h-3.53V30.5h3.9V28.77H217.9v7.36h6V34.39h-4Zm11,2.9H233V28.77H231Zm9-5.57h2.21v5.57h2V30.56h2.21V28.77h-6.46Zm18,2.35c0,1-.54,1.51-1.36,1.51s-1.36-.5-1.36-1.56V28.77h-2.07V32.9c0,2.3,1.32,3.36,3.41,3.36s3.45-1,3.45-3.41V28.77H258Zm15.79-1.61v0a2.28,2.28,0,0,0-.65-1.71,3.19,3.19,0,0,0-2.4-.8h-3.48v7.36h2.05V33.9h.89l1.48,2.23H274l-1.76-2.57A2.31,2.31,0,0,0,273.74,31.3Zm-2.05.13c0,.53-.39.87-1.09.87h-1.34V30.53h1.33c.68,0,1.1.3,1.1.88Zm11.48-2.71L280,36.13h2.14l.53-1.32h2.84l.53,1.32h2.19l-3.13-7.41Zm.14,4.51.83-2.1.82,2.1Zm23.4-4.46h-2.84v7.36h2.8c2.65,0,4.19-1.58,4.19-3.7v0C310.86,30.28,309.34,28.77,306.71,28.77Zm2.06,3.69a1.8,1.8,0,0,1-2,1.86h-.83V30.58h.83a1.81,1.81,0,0,1,2,1.86Zm11.15,1.93V33.23h3.53V31.62h-3.53V30.5h3.9V28.77H317.9v7.36h6V34.39Z" style="fill:#fff"/></svg>