<svg width="298" height="286" viewBox="0 0 298 286" fill="none" xmlns="http://www.w3.org/2000/svg">
<path d="M278.853 199.291C290.587 195.206 298 186.854 298 177.721V175.244C298 161.921 282.495 151.125 263.362 151.125C248.453 151.125 235.22 157.768 230.503 167.615C226.927 175.082 225.102 182.25 212.758 182.25H85.2373C72.4885 182.25 70.5329 173.969 67.4923 167.615C62.7802 157.768 49.5425 151.125 34.6378 151.125C15.5053 151.125 0 161.921 0 175.244V177.721C0 186.854 7.41275 195.206 19.1465 199.291C23.5373 200.818 23.5373 205.182 19.1465 206.709C7.41275 210.794 0 219.146 0 228.279V230.756C0 244.079 15.5053 254.875 34.6332 254.875C49.5425 254.875 62.7756 248.232 67.4923 238.385C71.0683 230.918 72.8936 223.75 85.2373 223.75H212.758C225.507 223.75 227.462 232.031 230.503 238.385C235.22 248.232 248.457 254.875 263.362 254.875C282.49 254.875 297.995 244.079 297.995 230.756V228.279C297.995 219.143 290.583 210.794 278.849 206.709C274.463 205.182 274.463 200.818 278.853 199.291V199.291Z" fill="white"/>
<path d="M81.44 169.576C79.584 169.576 78.08 169.032 76.928 167.944C75.84 166.792 75.296 165.256 75.296 163.336V107.176C75.296 105.32 75.808 103.88 76.832 102.856C77.92 101.832 79.392 101.32 81.248 101.32H104.864C112.096 101.32 117.728 103.144 121.76 106.792C125.792 110.376 127.808 115.432 127.808 121.96C127.808 128.488 125.792 133.576 121.76 137.224C117.728 140.872 112.096 142.696 104.864 142.696H87.68V163.336C87.68 165.256 87.104 166.792 85.952 167.944C84.864 169.032 83.36 169.576 81.44 169.576ZM103.328 133.192C111.84 133.192 116.096 129.48 116.096 122.056C116.096 114.632 111.84 110.92 103.328 110.92H87.68V133.192H103.328ZM173.08 156.136C174.168 156.136 175.032 156.552 175.672 157.384C176.376 158.216 176.728 159.336 176.728 160.744C176.728 162.728 175.544 164.392 173.176 165.736C171 166.952 168.536 167.944 165.784 168.712C163.032 169.416 160.408 169.768 157.911 169.768C150.36 169.768 144.376 167.592 139.96 163.24C135.544 158.888 133.336 152.936 133.336 145.384C133.336 140.584 134.296 136.328 136.216 132.616C138.136 128.904 140.824 126.024 144.28 123.976C147.8 121.928 151.768 120.904 156.184 120.904C160.408 120.904 164.088 121.832 167.224 123.688C170.36 125.544 172.792 128.168 174.52 131.56C176.248 134.952 177.112 138.952 177.112 143.56C177.112 146.312 175.896 147.688 173.464 147.688H145.144C145.528 152.104 146.776 155.368 148.888 157.48C151 159.528 154.072 160.552 158.104 160.552C160.152 160.552 161.944 160.296 163.48 159.784C165.08 159.272 166.872 158.568 168.856 157.672C170.776 156.648 172.184 156.136 173.08 156.136ZM156.472 129.352C153.208 129.352 150.584 130.376 148.6 132.424C146.68 134.472 145.528 137.416 145.144 141.256H166.84C166.712 137.352 165.752 134.408 163.96 132.424C162.168 130.376 159.672 129.352 156.472 129.352ZM210.655 160.648C213.855 160.84 215.455 162.28 215.455 164.968C215.455 166.504 214.815 167.688 213.535 168.52C212.319 169.288 210.559 169.608 208.255 169.48L205.663 169.288C194.911 168.52 189.535 162.76 189.535 152.008V131.08H184.735C183.007 131.08 181.663 130.696 180.703 129.928C179.807 129.16 179.359 128.04 179.359 126.568C179.359 125.096 179.807 123.976 180.703 123.208C181.663 122.44 183.007 122.056 184.735 122.056H189.535V113.224C189.535 111.496 190.079 110.12 191.167 109.096C192.255 108.072 193.727 107.56 195.583 107.56C197.375 107.56 198.815 108.072 199.903 109.096C200.991 110.12 201.535 111.496 201.535 113.224V122.056H209.695C211.423 122.056 212.735 122.44 213.631 123.208C214.591 123.976 215.071 125.096 215.071 126.568C215.071 128.04 214.591 129.16 213.631 129.928C212.735 130.696 211.423 131.08 209.695 131.08H201.535V152.872C201.535 157.608 203.711 160.136 208.063 160.456L210.655 160.648Z" fill="white"/>
<path d="M37.536 97.864C31.008 97.864 25.28 96.456 20.352 93.64C15.488 90.824 11.744 86.792 9.12 81.544C6.496 76.296 5.184 70.152 5.184 63.112C5.184 56.072 6.496 49.96 9.12 44.776C11.744 39.528 15.488 35.496 20.352 32.68C25.28 29.864 31.008 28.456 37.536 28.456C41.76 28.456 45.728 29.096 49.44 30.376C53.152 31.592 56.448 33.384 59.328 35.752C60.16 36.392 60.736 37.064 61.056 37.768C61.376 38.472 61.536 39.336 61.536 40.36C61.536 41.768 61.152 42.952 60.384 43.912C59.616 44.872 58.688 45.352 57.6 45.352C56.32 45.352 55.008 44.904 53.664 44.008C50.912 41.96 48.352 40.552 45.984 39.784C43.616 38.952 40.992 38.536 38.112 38.536C31.456 38.536 26.4 40.616 22.944 44.776C19.552 48.936 17.856 55.048 17.856 63.112C17.856 71.24 19.552 77.384 22.944 81.544C26.4 85.704 31.456 87.784 38.112 87.784C40.864 87.784 43.392 87.368 45.696 86.536C48.064 85.704 50.72 84.296 53.664 82.312C54.304 81.928 54.944 81.608 55.584 81.352C56.224 81.096 56.896 80.968 57.6 80.968C58.688 80.968 59.616 81.448 60.384 82.408C61.152 83.368 61.536 84.552 61.536 85.96C61.536 86.92 61.376 87.784 61.056 88.552C60.736 89.256 60.16 89.928 59.328 90.568C56.448 92.936 53.152 94.76 49.44 96.04C45.728 97.256 41.76 97.864 37.536 97.864ZM90.717 48.904C97.245 48.904 102.077 50.536 105.213 53.8C108.413 57 110.013 61.896 110.013 68.488V91.912C110.013 93.64 109.501 95.016 108.477 96.04C107.453 97 106.045 97.48 104.253 97.48C102.589 97.48 101.213 96.968 100.125 95.944C99.101 94.92 98.589 93.576 98.589 91.912V89.8C97.501 92.296 95.773 94.248 93.405 95.656C91.101 97.064 88.413 97.768 85.341 97.768C82.205 97.768 79.357 97.128 76.797 95.848C74.237 94.568 72.221 92.808 70.749 90.568C69.277 88.328 68.541 85.832 68.541 83.08C68.541 79.624 69.405 76.904 71.133 74.92C72.925 72.936 75.805 71.496 79.773 70.6C83.741 69.704 89.213 69.256 96.189 69.256H98.589V67.048C98.589 63.912 97.917 61.64 96.573 60.232C95.229 58.76 93.053 58.024 90.045 58.024C88.189 58.024 86.301 58.312 84.381 58.888C82.461 59.4 80.189 60.168 77.565 61.192C75.901 62.024 74.685 62.44 73.917 62.44C72.765 62.44 71.805 62.024 71.037 61.192C70.333 60.36 69.981 59.272 69.981 57.928C69.981 56.84 70.237 55.912 70.749 55.144C71.325 54.312 72.253 53.544 73.533 52.84C75.773 51.624 78.429 50.664 81.501 49.96C84.637 49.256 87.709 48.904 90.717 48.904ZM87.741 89.128C90.941 89.128 93.533 88.072 95.517 85.96C97.565 83.784 98.589 81 98.589 77.608V75.592H96.861C92.573 75.592 89.245 75.784 86.877 76.168C84.509 76.552 82.813 77.224 81.789 78.184C80.765 79.144 80.253 80.456 80.253 82.12C80.253 84.168 80.957 85.864 82.365 87.208C83.837 88.488 85.629 89.128 87.741 89.128ZM139.201 97.768C132.225 97.768 126.593 96.392 122.305 93.64C120.257 92.424 119.233 90.696 119.233 88.456C119.233 87.176 119.585 86.152 120.289 85.384C120.993 84.552 121.857 84.136 122.881 84.136C123.969 84.136 125.473 84.648 127.393 85.672C129.441 86.632 131.297 87.368 132.961 87.88C134.689 88.392 136.865 88.648 139.489 88.648C142.177 88.648 144.257 88.2 145.729 87.304C147.265 86.408 148.033 85.16 148.033 83.56C148.033 82.472 147.713 81.608 147.073 80.968C146.497 80.328 145.409 79.752 143.809 79.24C142.273 78.664 139.905 78.024 136.705 77.32C131.009 76.168 126.913 74.536 124.417 72.424C121.985 70.312 120.769 67.4 120.769 63.688C120.769 60.872 121.601 58.344 123.265 56.104C124.929 53.8 127.201 52.04 130.081 50.824C133.025 49.544 136.353 48.904 140.065 48.904C142.753 48.904 145.345 49.256 147.841 49.96C150.337 50.6 152.577 51.56 154.561 52.84C156.609 54.12 157.633 55.816 157.633 57.928C157.633 59.208 157.281 60.296 156.577 61.192C155.873 62.024 155.009 62.44 153.985 62.44C153.281 62.44 152.577 62.312 151.873 62.056C151.233 61.736 150.401 61.288 149.377 60.712C147.521 59.752 145.921 59.048 144.577 58.6C143.233 58.088 141.569 57.832 139.585 57.832C137.217 57.832 135.329 58.312 133.921 59.272C132.577 60.232 131.905 61.544 131.905 63.208C131.905 64.808 132.609 66.024 134.017 66.856C135.425 67.688 138.145 68.52 142.177 69.352C146.465 70.248 149.825 71.272 152.257 72.424C154.689 73.576 156.417 75.016 157.441 76.744C158.529 78.472 159.073 80.68 159.073 83.368C159.073 87.72 157.249 91.208 153.601 93.832C150.017 96.456 145.217 97.768 139.201 97.768ZM192.718 88.648C195.918 88.84 197.518 90.28 197.518 92.968C197.518 94.504 196.878 95.688 195.598 96.52C194.382 97.288 192.622 97.608 190.318 97.48L187.726 97.288C176.974 96.52 171.598 90.76 171.598 80.008V59.08H166.798C165.07 59.08 163.726 58.696 162.766 57.928C161.87 57.16 161.422 56.04 161.422 54.568C161.422 53.096 161.87 51.976 162.766 51.208C163.726 50.44 165.07 50.056 166.798 50.056H171.598V41.224C171.598 39.496 172.142 38.12 173.23 37.096C174.318 36.072 175.79 35.56 177.646 35.56C179.438 35.56 180.878 36.072 181.966 37.096C183.054 38.12 183.598 39.496 183.598 41.224V50.056H191.758C193.486 50.056 194.798 50.44 195.694 51.208C196.654 51.976 197.134 53.096 197.134 54.568C197.134 56.04 196.654 57.16 195.694 57.928C194.798 58.696 193.486 59.08 191.758 59.08H183.598V80.872C183.598 85.608 185.774 88.136 190.126 88.456L192.718 88.648ZM229.979 49.096C231.643 48.968 232.955 49.32 233.915 50.152C234.875 50.984 235.355 52.232 235.355 53.896C235.355 55.624 234.939 56.904 234.107 57.736C233.275 58.568 231.771 59.112 229.595 59.368L226.715 59.656C222.939 60.04 220.155 61.32 218.363 63.496C216.635 65.672 215.771 68.392 215.771 71.656V91.816C215.771 93.672 215.195 95.112 214.043 96.136C212.891 97.096 211.451 97.576 209.723 97.576C207.995 97.576 206.555 97.096 205.403 96.136C204.315 95.112 203.771 93.672 203.771 91.816V54.664C203.771 52.872 204.315 51.496 205.403 50.536C206.555 49.576 207.963 49.096 209.627 49.096C211.291 49.096 212.635 49.576 213.659 50.536C214.683 51.432 215.195 52.744 215.195 54.472V58.312C216.411 55.496 218.203 53.32 220.571 51.784C223.003 50.248 225.691 49.384 228.635 49.192L229.979 49.096ZM260.686 48.904C267.214 48.904 272.046 50.536 275.182 53.8C278.382 57 279.982 61.896 279.982 68.488V91.912C279.982 93.64 279.47 95.016 278.446 96.04C277.422 97 276.014 97.48 274.222 97.48C272.558 97.48 271.182 96.968 270.094 95.944C269.07 94.92 268.558 93.576 268.558 91.912V89.8C267.47 92.296 265.742 94.248 263.374 95.656C261.07 97.064 258.382 97.768 255.31 97.768C252.174 97.768 249.326 97.128 246.766 95.848C244.206 94.568 242.19 92.808 240.718 90.568C239.246 88.328 238.51 85.832 238.51 83.08C238.51 79.624 239.374 76.904 241.102 74.92C242.894 72.936 245.774 71.496 249.742 70.6C253.71 69.704 259.182 69.256 266.158 69.256H268.558V67.048C268.558 63.912 267.886 61.64 266.542 60.232C265.198 58.76 263.022 58.024 260.014 58.024C258.158 58.024 256.27 58.312 254.35 58.888C252.43 59.4 250.158 60.168 247.534 61.192C245.87 62.024 244.654 62.44 243.886 62.44C242.734 62.44 241.774 62.024 241.006 61.192C240.302 60.36 239.95 59.272 239.95 57.928C239.95 56.84 240.206 55.912 240.718 55.144C241.294 54.312 242.222 53.544 243.502 52.84C245.742 51.624 248.398 50.664 251.47 49.96C254.606 49.256 257.678 48.904 260.686 48.904ZM257.71 89.128C260.91 89.128 263.502 88.072 265.486 85.96C267.534 83.784 268.558 81 268.558 77.608V75.592H266.83C262.542 75.592 259.214 75.784 256.846 76.168C254.478 76.552 252.782 77.224 251.758 78.184C250.734 79.144 250.222 80.456 250.222 82.12C250.222 84.168 250.926 85.864 252.334 87.208C253.806 88.488 255.598 89.128 257.71 89.128Z" fill="white"/>
</svg>
